<svg width="1440" height="850" viewBox="0 0 1440 850" fill="none" xmlns="http://www.w3.org/2000/svg">
<g clip-path="url(#clip0_6827_25427)">
<rect width="1440" height="850" fill="#0443D4"/>
<g clip-path="url(#clip1_6827_25427)">
<path fill-rule="evenodd" clip-rule="evenodd" d="M1166.82 388.956C1166.7 388.959 1166.59 388.96 1166.48 388.96C1163.78 388.96 1161.26 388.217 1159.11 386.925C1158.62 387.543 1158.04 388.087 1157.4 388.538C1157.8 389.645 1158.02 390.841 1158.02 392.088C1158.02 397.804 1153.39 402.438 1147.67 402.438C1141.96 402.438 1137.32 397.804 1137.32 392.088C1137.32 387.371 1140.48 383.392 1144.79 382.144C1144.79 382.081 1144.79 382.018 1144.79 381.955C1144.79 377.748 1148.03 374.298 1152.14 373.959C1152.49 366.337 1158.77 360.261 1166.48 360.261C1172.75 360.261 1178.09 364.289 1180.04 369.9C1181.02 369.232 1182.2 368.841 1183.48 368.841C1186.73 368.841 1189.39 371.386 1189.57 374.594C1189.99 374.388 1190.45 374.272 1190.94 374.272C1192.22 374.272 1193.32 375.062 1193.77 376.181C1194.51 375.827 1195.33 375.629 1196.2 375.629C1199.29 375.629 1201.8 378.136 1201.8 381.229C1201.8 381.412 1201.79 381.594 1201.77 381.774C1202.06 381.749 1202.35 381.737 1202.65 381.737C1208.37 381.737 1213 386.371 1213 392.088C1213 397.804 1208.37 402.438 1202.65 402.438C1196.93 402.438 1192.3 397.804 1192.3 392.088C1192.3 391.685 1192.32 391.288 1192.37 390.897C1191.42 391.335 1190.36 391.579 1189.24 391.579C1188.62 391.579 1188.01 391.501 1187.42 391.355C1185.37 394.552 1181.79 396.67 1177.71 396.67C1172.67 396.67 1168.39 393.449 1166.82 388.956Z" fill="#1D56D8"/>
</g>
<g clip-path="url(#clip2_6827_25427)">
<path fill-rule="evenodd" clip-rule="evenodd" d="M675.063 95.2019C675.22 95.2055 675.378 95.2073 675.537 95.2073C679.334 95.2073 682.886 94.1607 685.921 92.3403C686.608 93.2104 687.421 93.9771 688.332 94.6129C687.762 96.1728 687.452 97.8572 687.452 99.6142C687.452 107.667 693.98 114.196 702.033 114.196C710.087 114.196 716.615 107.667 716.615 99.6142C716.615 92.9701 712.172 87.3638 706.094 85.6052C706.096 85.5167 706.097 85.4279 706.097 85.3389C706.097 79.4121 701.536 74.5508 695.732 74.0744C695.252 63.336 686.394 54.7773 675.537 54.7773C666.698 54.7773 659.183 60.451 656.437 68.3554C655.057 67.4147 653.39 66.8648 651.595 66.8648C647.01 66.8648 643.263 70.4495 643.003 74.9687C642.424 74.678 641.769 74.5143 641.077 74.5143C639.27 74.5143 637.724 75.6271 637.086 77.2045C636.052 76.7059 634.891 76.4265 633.666 76.4265C629.309 76.4265 625.778 79.9583 625.778 84.3151C625.778 84.5744 625.79 84.8308 625.814 85.0837C625.408 85.0497 624.997 85.0323 624.582 85.0323C616.529 85.0323 610.001 91.5608 610.001 99.6142C610.001 107.667 616.529 114.196 624.582 114.196C632.636 114.196 639.164 107.667 639.164 99.6142C639.164 99.0467 639.132 98.4867 639.069 97.9361C640.407 98.553 641.897 98.8971 643.467 98.8971C644.352 98.8971 645.211 98.7878 646.032 98.582C648.923 103.085 653.974 106.068 659.722 106.068C666.811 106.068 672.839 101.531 675.063 95.2019Z" fill="#1D56D8"/>
</g>
<g clip-path="url(#clip3_6827_25427)">
<path fill-rule="evenodd" clip-rule="evenodd" d="M307.278 621.53C307.455 621.534 307.634 621.537 307.812 621.537C307.833 621.537 307.854 621.537 307.874 621.536C307.379 623.102 307.111 624.77 307.111 626.5C307.111 635.57 314.464 642.923 323.534 642.923C332.604 642.923 339.957 635.57 339.957 626.5C339.957 624.004 339.401 621.638 338.405 619.52C340.766 617.209 342.231 613.987 342.231 610.422C342.231 603.747 337.093 598.272 330.557 597.735C330.016 585.641 320.04 576.001 307.812 576.001C297.857 576.001 289.393 582.391 286.3 591.294C284.747 590.234 282.869 589.615 280.847 589.615C275.683 589.615 271.463 593.652 271.17 598.742C270.518 598.415 269.78 598.23 269 598.23C266.966 598.23 265.225 599.484 264.506 601.26C263.341 600.699 262.034 600.384 260.654 600.384C255.747 600.384 251.769 604.362 251.769 609.269C251.769 609.561 251.783 609.85 251.811 610.135C251.353 610.096 250.891 610.077 250.423 610.077C241.353 610.077 234 617.43 234 626.5C234 635.57 241.353 642.923 250.423 642.923C259.493 642.923 266.846 635.57 266.846 626.5C266.846 625.861 266.81 625.23 266.739 624.61C268.246 625.305 269.924 625.692 271.692 625.692C272.689 625.692 273.657 625.569 274.582 625.337C277.837 630.409 283.526 633.769 290 633.769C297.984 633.769 304.774 628.658 307.278 621.53Z" fill="#1D56D8"/>
</g>
<g opacity="0.67">
<path d="M-197 795C-3.84284 371.589 178.713 217.057 692.161 274.156C1005.84 309.039 1262.05 181.535 1286 125" stroke="#608BF0" stroke-width="1.34921" stroke-dasharray="9.44 9.44"/>
</g>
<g opacity="0.45">
<path d="M1317.55 92.621C1317.31 92.3785 1317.01 92.2041 1316.68 92.1154C1316.35 92.0267 1316 92.0269 1315.67 92.1159L1280.38 101.41C1280.02 101.507 1279.69 101.705 1279.44 101.981C1279.19 102.257 1279.03 102.599 1278.96 102.967C1278.9 103.334 1278.95 103.712 1279.1 104.054C1279.24 104.396 1279.48 104.689 1279.79 104.898L1289.29 111.33L1286.93 124.167L1299.55 118.258L1307.91 123.908C1308.13 124.065 1308.38 124.172 1308.64 124.221C1308.99 124.283 1309.36 124.247 1309.69 124.117C1309.98 124.007 1310.24 123.827 1310.45 123.594C1310.66 123.36 1310.81 123.08 1310.88 122.777L1318.08 94.476C1318.16 94.1477 1318.15 93.8038 1318.06 93.4785C1317.97 93.1531 1317.79 92.8575 1317.55 92.621ZM1307.8 119.147L1298.55 112.878L1306.79 102.152L1290.68 107.576L1285.53 104.08L1313.5 96.7128L1307.8 119.147Z" fill="#608BF0"/>
</g>
</g>
<defs>
<clipPath id="clip0_6827_25427">
<rect width="1440" height="850" fill="white"/>
</clipPath>
<clipPath id="clip1_6827_25427">
<rect width="75" height="27.8281" fill="white" transform="translate(1138 359)"/>
</clipPath>
<clipPath id="clip2_6827_25427">
<rect width="105.659" height="39.2036" fill="white" transform="matrix(-1 0 0 1 715.659 53)"/>
</clipPath>
<clipPath id="clip3_6827_25427">
<rect width="119" height="44.1538" fill="white" transform="matrix(-1 0 0 1 353 574)"/>
</clipPath>
</defs>
</svg>
