<svg width="24" height="24" viewBox="0 0 32 32" fill="none" xmlns="http://www.w3.org/2000/svg">
<path fill-rule="evenodd" clip-rule="evenodd" d="M8.77039 4C6.13578 4 4 6.13578 4 8.77039V21.2053C4 23.8399 6.13578 25.9757 8.77039 25.9757H11.6491C12.338 25.9757 12.9932 26.2735 13.4462 26.7926L15.0904 28.6766C15.4666 29.1078 16.1369 29.1078 16.5131 28.6766L18.1573 26.7926C18.6103 26.2735 19.2655 25.9757 19.9544 25.9757H22.8331C25.4677 25.9757 27.6035 23.8399 27.6035 21.2053V8.77039C27.6035 6.13578 25.4677 4 22.8331 4H8.77039ZM11.9329 17.6899C11.2885 17.6887 10.609 17.6874 10.609 18.2106C10.609 20.2696 12.8132 22.8828 15.3297 22.8828L16.2738 22.8828C18.7904 22.8828 20.9945 20.2696 20.9945 18.2106C20.9945 17.6874 20.315 17.6887 19.6706 17.6899C19.6398 17.69 19.609 17.6901 19.5783 17.6901L12.0252 17.6901C11.9946 17.6901 11.9638 17.69 11.9329 17.6899Z" fill="#BDBDBD"/>
</svg>
