<svg width="101" height="17" viewBox="0 0 101 17" fill="none" xmlns="http://www.w3.org/2000/svg">
<path d="M7.88089 1.17344C8.14353 0.675633 8.85647 0.675635 9.11911 1.17344L10.9374 4.61972C11.0387 4.8117 11.2233 4.94582 11.4372 4.98283L15.2767 5.64716C15.8313 5.74312 16.0516 6.42116 15.6593 6.82478L12.9436 9.61903C12.7923 9.77468 12.7218 9.9917 12.7527 10.2065L13.3073 14.0634C13.3874 14.6205 12.8107 15.0396 12.3056 14.7912L8.80887 13.0719C8.61409 12.9761 8.38591 12.9761 8.19113 13.0719L4.69443 14.7912C4.18934 15.0396 3.61256 14.6205 3.69268 14.0634L4.24734 10.2065C4.27823 9.9917 4.20772 9.77468 4.05644 9.61903L1.34071 6.82478C0.94843 6.42116 1.16874 5.74312 1.72334 5.64716L5.56284 4.98283C5.77671 4.94582 5.96132 4.8117 6.0626 4.61972L7.88089 1.17344Z" fill="#FF9900"/>
<path d="M28.8809 1.17344C29.1435 0.675633 29.8565 0.675635 30.1191 1.17344L31.9374 4.61972C32.0387 4.8117 32.2233 4.94582 32.4372 4.98283L36.2767 5.64716C36.8313 5.74312 37.0516 6.42116 36.6593 6.82478L33.9436 9.61903C33.7923 9.77468 33.7218 9.9917 33.7527 10.2065L34.3073 14.0634C34.3874 14.6205 33.8107 15.0396 33.3056 14.7912L29.8089 13.0719C29.6141 12.9761 29.3859 12.9761 29.1911 13.0719L25.6944 14.7912C25.1893 15.0396 24.6126 14.6205 24.6927 14.0634L25.2473 10.2065C25.2782 9.9917 25.2077 9.77468 25.0564 9.61903L22.3407 6.82478C21.9484 6.42116 22.1687 5.74312 22.7233 5.64716L26.5628 4.98283C26.7767 4.94582 26.9613 4.8117 27.0626 4.61972L28.8809 1.17344Z" fill="#FF9900"/>
<path d="M49.8809 1.17344C50.1435 0.675633 50.8565 0.675635 51.1191 1.17344L52.9374 4.61972C53.0387 4.8117 53.2233 4.94582 53.4372 4.98283L57.2767 5.64716C57.8313 5.74312 58.0516 6.42116 57.6593 6.82478L54.9436 9.61903C54.7923 9.77468 54.7218 9.9917 54.7527 10.2065L55.3073 14.0634C55.3874 14.6205 54.8107 15.0396 54.3056 14.7912L50.8089 13.0719C50.6141 12.9761 50.3859 12.9761 50.1911 13.0719L46.6944 14.7912C46.1893 15.0396 45.6126 14.6205 45.6927 14.0634L46.2473 10.2065C46.2782 9.9917 46.2077 9.77468 46.0564 9.61903L43.3407 6.82478C42.9484 6.42116 43.1687 5.74312 43.7233 5.64716L47.5628 4.98283C47.7767 4.94582 47.9613 4.8117 48.0626 4.61972L49.8809 1.17344Z" fill="#FF9900"/>
<path d="M70.8809 1.17344C71.1435 0.675633 71.8565 0.675635 72.1191 1.17344L73.9374 4.61972C74.0387 4.8117 74.2233 4.94582 74.4372 4.98283L78.2767 5.64716C78.8313 5.74312 79.0516 6.42116 78.6593 6.82478L75.9436 9.61903C75.7923 9.77468 75.7218 9.9917 75.7527 10.2065L76.3073 14.0634C76.3874 14.6205 75.8107 15.0396 75.3056 14.7912L71.8089 13.0719C71.6141 12.9761 71.3859 12.9761 71.1911 13.0719L67.6944 14.7912C67.1893 15.0396 66.6126 14.6205 66.6927 14.0634L67.2473 10.2065C67.2782 9.9917 67.2077 9.77468 67.0564 9.61903L64.3407 6.82478C63.9484 6.42116 64.1687 5.74312 64.7233 5.64716L68.5628 4.98283C68.7767 4.94582 68.9613 4.8117 69.0626 4.61972L70.8809 1.17344Z" fill="#FF9900"/>
<path d="M91.8809 1.17344C92.1435 0.675633 92.8565 0.675635 93.1191 1.17344L94.9374 4.61972C95.0387 4.8117 95.2233 4.94582 95.4372 4.98283L99.2767 5.64716C99.8313 5.74312 100.052 6.42116 99.6593 6.82478L96.9436 9.61903C96.7923 9.77468 96.7218 9.9917 96.7527 10.2065L97.3073 14.0634C97.3874 14.6205 96.8107 15.0396 96.3056 14.7912L92.8089 13.0719C92.6141 12.9761 92.3859 12.9761 92.1911 13.0719L88.6944 14.7912C88.1893 15.0396 87.6126 14.6205 87.6927 14.0634L88.2473 10.2065C88.2782 9.9917 88.2077 9.77468 88.0564 9.61903L85.3407 6.82478C84.9484 6.42116 85.1687 5.74312 85.7233 5.64716L89.5628 4.98283C89.7767 4.94582 89.9613 4.8117 90.0626 4.61972L91.8809 1.17344Z" fill="#FF9900"/>
</svg>
