<svg width="256" height="258" viewBox="0 0 256 258" fill="none" xmlns="http://www.w3.org/2000/svg">
<path d="M0 8C0 3.58173 3.58172 0 8 0H248C252.418 0 256 3.58172 256 8V250C256 254.418 252.418 258 248 258H8C3.58172 258 0 254.418 0 250V8Z" fill="white"/>
<path d="M216 194V77L57 226H184C201.673 226 216 211.673 216 194Z" fill="url(#paint0_linear_10843_9519)" fill-opacity="0.23"/>
<path d="M216 58V194C216 211.673 201.673 226 184 226H36" stroke="url(#paint1_linear_10843_9519)"/>
<rect x="144" y="154" width="56" height="56" rx="28" fill="#B78DEB"/>
<path d="M175.285 175.007H160.325C158.496 175.007 157 176.509 157 178.345V188.36C157 190.195 158.496 191.698 160.325 191.698H172.459L177.28 196.538C177.446 196.705 177.612 196.705 177.945 196.705C178.111 196.705 178.111 196.705 178.277 196.705C178.609 196.538 178.776 196.204 178.776 195.87V178.345C178.609 176.509 177.113 175.007 175.285 175.007Z" fill="white"/>
<path d="M180.272 170C178.443 170 165.311 170 165.311 170C163.483 170 161.987 171.502 161.987 173.338H175.285C178.111 173.338 180.272 175.508 180.272 178.345V189.528L182.1 191.364C182.267 191.531 182.433 191.531 182.765 191.531C182.931 191.531 182.931 191.531 183.098 191.531C183.43 191.364 183.596 191.03 183.596 190.696C183.596 190.696 183.596 175.174 183.596 173.338C183.596 171.502 182.1 170 180.272 170Z" fill="white"/>
<path d="M172 140C187.464 140 200 127.464 200 112C200 96.536 187.464 84 172 84C156.536 84 144 96.536 144 112C144 127.464 156.536 140 172 140Z" fill="#0446DE"/>
<path d="M158 103.895C158 100.639 160.639 98 163.895 98H181.272C184.528 98 187.167 100.639 187.167 103.895V119.26C187.167 122.516 184.528 125.155 181.272 125.155H177.715C176.863 125.155 176.054 125.523 175.494 126.165L173.462 128.493C172.997 129.025 172.169 129.025 171.704 128.493L169.673 126.165C169.113 125.523 168.303 125.155 167.452 125.155H163.895C160.639 125.155 158 122.516 158 119.26V103.895Z" fill="white"/>
<path d="M166.168 115.56C166.168 114.882 167.09 114.917 167.918 114.917L177.251 114.917C178.079 114.917 179.001 114.882 179.001 115.56C179.001 118.104 176.278 121.333 173.168 121.333L172.001 121.333C168.892 121.333 166.168 118.104 166.168 115.56Z" fill="#0446DE"/>
<defs>
<linearGradient id="paint0_linear_10843_9519" x1="204.422" y1="226" x2="139.955" y2="145.724" gradientUnits="userSpaceOnUse">
<stop stop-color="#B78DEB"/>
<stop offset="1" stop-color="#B78DEB" stop-opacity="0"/>
</linearGradient>
<linearGradient id="paint1_linear_10843_9519" x1="133.036" y1="138.953" x2="200.158" y2="215.646" gradientUnits="userSpaceOnUse">
<stop stop-color="#B78DEB" stop-opacity="0"/>
<stop offset="1" stop-color="#B78DEB"/>
</linearGradient>
</defs>
</svg>
