<svg width="48" height="48" viewBox="0 0 48 48" fill="none" xmlns="http://www.w3.org/2000/svg">
<path d="M24 48C37.2548 48 48 37.2548 48 24C48 10.7451 37.2548 0 24 0C10.7452 0 0 10.7451 0 24C0 37.2548 10.7452 48 24 48Z" fill="#0446DE"/>
<path d="M12 17.0526C12 14.2621 14.2621 12 17.0526 12H31.9474C34.7379 12 37 14.2621 37 17.0526V30.2232C37 33.0137 34.7379 35.2759 31.9474 35.2759H28.8984C28.1687 35.2759 27.4747 35.5913 26.9949 36.1411L25.2534 38.1366C24.8549 38.5933 24.1451 38.5933 23.7466 38.1366L22.0051 36.1411C21.5253 35.5913 20.8313 35.2759 20.1016 35.2759H17.0526C14.2621 35.2759 12 33.0137 12 30.2232V17.0526Z" fill="white"/>
<path d="M19 27.0513C19 26.4707 19.7903 26.5 20.5 26.5L28.5 26.5C29.2097 26.5 30 26.4707 30 27.0513C30 29.2321 27.6654 32 25 32L24 32C21.3346 32 19 29.2321 19 27.0513Z" fill="#0446DE"/>
</svg>
