<svg width="158" height="158" viewBox="0 0 158 158" fill="none" xmlns="http://www.w3.org/2000/svg">
<path fill-rule="evenodd" clip-rule="evenodd" d="M93.4449 14.25L78.7224 0L64 14.25H72.7224V31H84.7224V14.25H93.4449Z" fill="url(#paint0_linear_10_40)" fill-opacity="0.4"/>
<path fill-rule="evenodd" clip-rule="evenodd" d="M63.5551 143.75L78.2776 158L93 143.75L84.2776 143.75L84.2776 127L72.2776 127L72.2776 143.75L63.5551 143.75Z" fill="url(#paint1_linear_10_40)" fill-opacity="0.4"/>
<path fill-rule="evenodd" clip-rule="evenodd" d="M14.25 63.5551L-6.43538e-07 78.2776L14.25 93L14.25 84.2776L31 84.2776L31 72.2776L14.25 72.2776L14.25 63.5551Z" fill="url(#paint2_linear_10_40)" fill-opacity="0.4"/>
<path fill-rule="evenodd" clip-rule="evenodd" d="M143.75 93.4449L158 78.7224L143.75 64L143.75 72.7224L127 72.7224L127 84.7224L143.75 84.7224L143.75 93.4449Z" fill="url(#paint3_linear_10_40)" fill-opacity="0.4"/>
<defs>
<linearGradient id="paint0_linear_10_40" x1="79" y1="30" x2="75.7321" y2="1.37306" gradientUnits="userSpaceOnUse">
<stop stop-color="#B78DEB" stop-opacity="0.2"/>
<stop offset="1" stop-color="#B78DEB"/>
</linearGradient>
<linearGradient id="paint1_linear_10_40" x1="78" y1="128" x2="81.2679" y2="156.627" gradientUnits="userSpaceOnUse">
<stop stop-color="#B78DEB" stop-opacity="0.2"/>
<stop offset="1" stop-color="#B78DEB"/>
</linearGradient>
<linearGradient id="paint2_linear_10_40" x1="30" y1="78" x2="1.37306" y2="81.2679" gradientUnits="userSpaceOnUse">
<stop stop-color="#B78DEB" stop-opacity="0.2"/>
<stop offset="1" stop-color="#B78DEB"/>
</linearGradient>
<linearGradient id="paint3_linear_10_40" x1="128" y1="79" x2="156.627" y2="75.7321" gradientUnits="userSpaceOnUse">
<stop stop-color="#B78DEB" stop-opacity="0.2"/>
<stop offset="1" stop-color="#B78DEB"/>
</linearGradient>
</defs>
</svg>
