<svg width="56" height="56" viewBox="0 0 56 56" fill="none" xmlns="http://www.w3.org/2000/svg">
<rect width="56" height="56" rx="28" fill="#B78DEB"/>
<path fill-rule="evenodd" clip-rule="evenodd" d="M22.1001 17.9268C20.9874 16.8141 19.1833 16.8141 18.0705 17.9268C16.9578 19.0395 16.9578 20.8436 18.0705 21.9564L24.116 28.0019L18.0712 34.0467C16.9584 35.1595 16.9584 36.9636 18.0712 38.0763C19.1839 39.189 20.988 39.189 22.1007 38.0763L28.1456 32.0314L34.1888 38.0746C35.3015 39.1873 37.1056 39.1873 38.2183 38.0746C39.3311 36.9619 39.3311 35.1578 38.2183 34.045L32.1751 28.0019L38.219 21.958C39.3317 20.8453 39.3317 19.0412 38.219 17.9285C37.1062 16.8158 35.3021 16.8158 34.1894 17.9285L28.1456 23.9723L22.1001 17.9268Z" fill="white"/>
</svg>
