<svg width="56" height="56" viewBox="0 0 56 56" fill="none" xmlns="http://www.w3.org/2000/svg">
<rect width="56" height="56" rx="28" fill="#B78DEB"/>
<path d="M31.285 21.0071H16.3245C14.496 21.0071 13 22.5093 13 24.3452V34.3595C13 36.1955 14.496 37.6976 16.3245 37.6976H28.4591L33.2797 42.5379C33.4459 42.7048 33.6121 42.7048 33.9446 42.7048C34.1108 42.7048 34.1108 42.7048 34.277 42.7048C34.6095 42.5379 34.7757 42.2041 34.7757 41.8703V24.3452C34.6095 22.5093 33.1135 21.0071 31.285 21.0071Z" fill="white"/>
<path d="M36.2718 16C34.4433 16 21.3114 16 21.3114 16C19.4829 16 17.9868 17.5021 17.9868 19.3381H31.285C34.1109 19.3381 36.2718 21.5079 36.2718 24.3453V35.5279L38.1003 37.3639C38.2665 37.5308 38.4328 37.5308 38.7652 37.5308C38.9314 37.5308 38.9314 37.5308 39.0977 37.5308C39.4301 37.3639 39.5963 37.03 39.5963 36.6962C39.5963 36.6962 39.5963 21.1741 39.5963 19.3381C39.5963 17.5021 38.1003 16 36.2718 16Z" fill="white"/>
</svg>
