<svg width="174" height="64" viewBox="0 0 174 64" fill="none" xmlns="http://www.w3.org/2000/svg">
<path d="M0 6.5V57.5C7.11384 47.9793 17.6792 41.6298 29.425 39.8164L56 35.7136V28.7816L29.8193 24.7396C17.8409 22.8904 7.1019 16.3216 0 6.5Z" fill="url(#paint0_linear_10663_22183)"/>
<g clip-path="url(#clip0_10663_22183)">
<rect x="56" width="64" height="64" rx="32" fill="white"/>
<path d="M88 0.857724C88 0.384016 87.6158 -0.00120032 87.1423 0.0114833C78.9663 0.230475 71.1713 3.57388 65.3726 9.37258C59.3714 15.3737 56 23.5131 56 32C56 40.4869 59.3714 48.6263 65.3726 54.6274C71.1713 60.4261 78.9663 63.7695 87.1423 63.9885C87.6158 64.0012 88 63.616 88 63.1423C88 62.6686 87.6158 62.2858 87.1423 62.2724C79.4214 62.0539 72.0626 58.8914 66.5856 53.4144C60.9061 47.735 57.7154 40.032 57.7154 32C57.7154 23.968 60.9061 16.265 66.5856 10.5856C72.0626 5.10862 79.4214 1.94612 87.1423 1.72758C87.6158 1.71418 88 1.33143 88 0.857724Z" fill="url(#paint1_linear_10663_22183)"/>
<path d="M88 63.1423C88 63.616 88.3842 64.0012 88.8577 63.9885C97.0337 63.7695 104.829 60.4261 110.627 54.6274C116.629 48.6263 120 40.4869 120 32C120 23.5131 116.629 15.3738 110.627 9.37259C104.829 3.57388 97.0337 0.230477 88.8577 0.0114835C88.3842 -0.00120024 88 0.384016 88 0.857724C88 1.33143 88.3842 1.71418 88.8577 1.72758C96.5787 1.94612 103.937 5.10862 109.414 10.5856C115.094 16.265 118.285 23.968 118.285 32C118.285 40.032 115.094 47.735 109.414 53.4144C103.937 58.8914 96.5786 62.0539 88.8577 62.2724C88.3842 62.2858 88 62.6686 88 63.1423Z" fill="url(#paint2_linear_10663_22183)"/>
<path d="M78.5575 32.0072C78.7043 31.9896 78.8531 32.0011 78.9954 32.041C79.1377 32.081 79.2707 32.1486 79.3869 32.2399C79.5031 32.3313 79.6001 32.4447 79.6725 32.5736C79.7448 32.7025 79.791 32.8444 79.8085 32.9912C79.9997 34.5722 80.6443 36.064 81.6647 37.2867C82.685 38.5094 84.0374 39.4107 85.5587 39.8817C87.0799 40.3527 88.705 40.3734 90.2377 39.9412C91.7705 39.5091 93.1454 38.6425 94.1965 37.4462L92.3905 35.6402C92.3379 35.5877 92.3021 35.5208 92.2876 35.448C92.273 35.3752 92.2805 35.2997 92.3089 35.2311C92.3374 35.1625 92.3855 35.1039 92.4473 35.0627C92.5091 35.0215 92.5817 34.9995 92.656 34.9997H98.125C98.2245 34.9997 98.3198 35.0392 98.3902 35.1095C98.4605 35.1798 98.5 35.2752 98.5 35.3747V40.8437C98.5001 40.9179 98.4782 40.9906 98.437 41.0524C98.3958 41.1142 98.3372 41.1623 98.2686 41.1908C98.2 41.2192 98.1245 41.2266 98.0517 41.2121C97.9788 41.1976 97.9119 41.1617 97.8595 41.1092L95.7895 39.0392C94.4384 40.5325 92.6864 41.6059 90.7424 42.1314C88.7984 42.657 86.7442 42.6126 84.8247 42.0036C82.9052 41.3945 81.2013 40.2464 79.9159 38.6962C78.6306 37.1459 77.818 35.2588 77.575 33.2597C77.5574 33.1129 77.5689 32.9641 77.6089 32.8218C77.6488 32.6795 77.7164 32.5464 77.8078 32.4303C77.8991 32.3141 78.0125 32.2171 78.1414 32.1447C78.2703 32.0724 78.4122 32.0261 78.559 32.0087L78.5575 32.0072ZM88 23.7497C86.8272 23.7497 85.6679 23.9997 84.5994 24.4832C83.5309 24.9666 82.5777 25.6723 81.8035 26.5532L83.6095 28.3592C83.6621 28.4116 83.6979 28.4785 83.7124 28.5513C83.727 28.6242 83.7195 28.6997 83.6911 28.7683C83.6627 28.8369 83.6145 28.8955 83.5527 28.9367C83.4909 28.9779 83.4183 28.9998 83.344 28.9997H77.875C77.7755 28.9997 77.6802 28.9602 77.6098 28.8898C77.5395 28.8195 77.5 28.7241 77.5 28.6247V23.1557C77.4999 23.0814 77.5218 23.0088 77.563 22.947C77.6042 22.8852 77.6628 22.837 77.7314 22.8086C77.8 22.7801 77.8755 22.7727 77.9483 22.7872C78.0212 22.8018 78.0881 22.8376 78.1405 22.8902L80.2105 24.9602C81.5616 23.4669 83.3136 22.3935 85.2576 21.8679C87.2016 21.3423 89.2558 21.3867 91.1753 21.9958C93.0948 22.6049 94.7987 23.7529 96.0841 25.3032C97.3694 26.8534 98.182 28.7406 98.425 30.7397C98.4604 31.036 98.3766 31.3344 98.1921 31.569C98.0076 31.8036 97.7374 31.9553 97.441 31.9907C97.1446 32.0261 96.8463 31.9423 96.6117 31.7578C96.3771 31.5732 96.2254 31.303 96.19 31.0067C95.9473 29.0053 94.9802 27.162 93.4713 25.8249C91.9624 24.4879 90.0161 23.7497 88 23.7497Z" fill="#092030"/>
</g>
<path d="M174 6.5V57.5C167.149 47.9912 156.792 41.604 145.219 39.7512L120 35.7136V28.7816L144.82 24.8078C156.628 22.9173 167.16 16.3091 174 6.5Z" fill="url(#paint3_linear_10663_22183)"/>
<defs>
<linearGradient id="paint0_linear_10663_22183" x1="56" y1="32" x2="0" y2="32" gradientUnits="userSpaceOnUse">
<stop stop-color="#B78DEB"/>
<stop offset="1" stop-color="white"/>
</linearGradient>
<linearGradient id="paint1_linear_10663_22183" x1="88" y1="0" x2="88" y2="64" gradientUnits="userSpaceOnUse">
<stop stop-color="#B78DEB"/>
<stop offset="1" stop-color="white"/>
</linearGradient>
<linearGradient id="paint2_linear_10663_22183" x1="88" y1="64" x2="88" y2="0" gradientUnits="userSpaceOnUse">
<stop stop-color="#0446DE"/>
<stop offset="1" stop-color="white"/>
</linearGradient>
<linearGradient id="paint3_linear_10663_22183" x1="120" y1="32" x2="174" y2="32" gradientUnits="userSpaceOnUse">
<stop stop-color="#0446DE"/>
<stop offset="1" stop-color="white"/>
</linearGradient>
<clipPath id="clip0_10663_22183">
<rect x="56" width="64" height="64" rx="32" fill="white"/>
</clipPath>
</defs>
</svg>
