<svg width="87" height="36" viewBox="0 0 87 36" fill="none" xmlns="http://www.w3.org/2000/svg">
<path d="M16.0686 10.6662H2.92156C1.3147 10.6662 0 11.9862 0 13.5997V22.4001C0 24.0135 1.3147 25.3336 2.92156 25.3336H13.5853L17.8215 29.5872C17.9676 29.7338 18.1137 29.7338 18.4059 29.7338C18.5519 29.7338 18.5519 29.7338 18.698 29.7338C18.9902 29.5872 19.1362 29.2938 19.1362 29.0005V13.5997C18.9902 11.9862 17.6755 10.6662 16.0686 10.6662Z" fill="#B78DEB"/>
<path d="M20.451 6.26598C18.8441 6.26598 7.30394 6.26598 7.30394 6.26598C5.69708 6.26598 4.38238 7.58604 4.38238 9.19946H16.0686C18.552 9.19946 20.451 11.1062 20.451 13.5997V23.4269L22.0578 25.0403C22.2039 25.1869 22.35 25.1869 22.6422 25.1869C22.7882 25.1869 22.7882 25.1869 22.9343 25.1869C23.2265 25.0403 23.3725 24.7469 23.3725 24.4536C23.3725 24.4536 23.3725 10.8129 23.3725 9.19946C23.3725 7.58604 22.0578 6.26598 20.451 6.26598Z" fill="#B78DEB"/>
<path d="M36.3335 24.3869C34.6206 24.3869 33.2834 23.9138 32.3221 22.9676C31.3782 22.0041 30.9062 20.7396 30.9062 19.1741C30.9062 17.7805 31.1859 16.559 31.7452 15.5096C32.3046 14.4601 33.03 13.6515 33.9214 13.0838C34.8128 12.516 35.748 12.2322 36.7268 12.2322C37.6881 12.2322 38.431 12.516 38.9554 13.0838C39.4972 13.6343 39.7681 14.3483 39.7681 15.2257C39.7681 15.9483 39.6021 16.559 39.27 17.0579C38.9554 17.5569 38.5359 17.8063 38.0115 17.8063C37.6794 17.8063 37.4085 17.7289 37.1987 17.5741C37.0064 17.4192 36.9103 17.2042 36.9103 16.9289C36.9103 16.8085 36.9278 16.6708 36.9627 16.516C36.9977 16.3612 37.0239 16.2493 37.0414 16.1805C37.1288 15.9225 37.1725 15.6816 37.1725 15.458C37.1725 15.2343 37.1113 15.0623 36.989 14.9418C36.8841 14.8214 36.7268 14.7612 36.517 14.7612C36.115 14.7612 35.7392 14.9418 35.3896 15.3031C35.04 15.6472 34.7604 16.1203 34.5506 16.7225C34.3409 17.3246 34.236 17.987 34.236 18.7095C34.236 20.7052 35.1187 21.7031 36.8841 21.7031C37.6007 21.7031 38.3698 21.4708 39.1913 21.0063C40.0303 20.5246 40.8518 19.8106 41.6559 18.8644C41.8656 18.6235 42.1016 18.5031 42.3638 18.5031C42.591 18.5031 42.7658 18.6063 42.8881 18.8128C43.028 19.0192 43.0979 19.3031 43.0979 19.6644C43.0979 20.3181 42.9318 20.8515 42.5997 21.2644C41.7782 22.2622 40.7907 23.0364 39.637 23.5869C38.5009 24.1203 37.3997 24.3869 36.3335 24.3869Z" fill="#49687E"/>
<path d="M55.5298 18.5031C55.757 18.5031 55.9318 18.6063 56.0542 18.8128C56.194 19.0192 56.2639 19.3031 56.2639 19.6644C56.2639 20.3525 56.0979 20.8859 55.7658 21.2644C54.9617 22.1762 54.1315 22.9246 53.275 23.5095C52.436 24.0945 51.4747 24.3869 50.391 24.3869C49.4995 24.3869 48.8266 24.1375 48.3721 23.6385C47.9177 23.1224 47.6904 22.3826 47.6904 21.4192C47.6904 20.9375 47.8128 20.0773 48.0575 18.8386C48.2847 17.7547 48.3984 17.0063 48.3984 16.5934C48.3984 16.3182 48.3022 16.1805 48.1099 16.1805C47.8827 16.1805 47.5594 16.473 47.1399 17.0579C46.7204 17.6257 46.3009 18.3827 45.8814 19.3289C45.4619 20.2751 45.121 21.273 44.8588 22.3224C44.5267 23.6988 43.7052 24.3869 42.3943 24.3869C41.8699 24.3869 41.5203 24.2063 41.3455 23.845C41.1882 23.4665 41.1096 22.7955 41.1096 21.8321C41.1096 21.2816 41.1183 20.8429 41.1358 20.516L41.162 18.4515C41.162 15.802 41.4329 13.0408 41.9748 10.1677C42.5341 7.29457 43.3469 4.88599 44.4131 2.94191C45.4968 0.980638 46.7903 0 48.2935 0C49.0975 0 49.7442 0.344084 50.2337 1.03225C50.7405 1.70321 50.994 2.58063 50.994 3.66449C50.994 5.40211 50.4784 7.20855 49.4471 9.08381C48.4158 10.9419 46.7378 13.1182 44.4131 15.6128C44.3607 16.5074 44.3345 17.4278 44.3345 18.3741C44.9113 16.9117 45.5493 15.7246 46.2484 14.8128C46.9651 13.8838 47.6642 13.2214 48.3459 12.8257C49.0451 12.43 49.6831 12.2322 50.2599 12.2322C51.396 12.2322 51.9641 12.7913 51.9641 13.9096C51.9641 14.5805 51.7718 15.7934 51.3873 17.5483C51.0552 19.045 50.8891 20.0343 50.8891 20.516C50.8891 21.2041 51.1426 21.5482 51.6495 21.5482C51.999 21.5482 52.4098 21.3418 52.8817 20.9289C53.3711 20.4988 54.0179 19.8106 54.8219 18.8644C55.0317 18.6235 55.2676 18.5031 55.5298 18.5031ZM47.7429 2.55482C47.4283 2.55482 47.0787 3.00213 46.6941 3.89675C46.3096 4.77416 45.9338 5.96985 45.5667 7.48382C45.2172 8.98058 44.9288 10.615 44.7015 12.387C45.7852 11.1311 46.6767 9.76337 47.3758 8.28381C48.0925 6.80425 48.4508 5.46233 48.4508 4.25803C48.4508 3.7075 48.3896 3.286 48.2673 2.99353C48.1449 2.70106 47.9701 2.55482 47.7429 2.55482Z" fill="#49687E"/>
<path d="M57.3639 24.3869C56.2802 24.3869 55.415 23.9998 54.7682 23.2256C54.1215 22.4515 53.7982 21.4364 53.7982 20.1805C53.7982 18.8042 54.1215 17.5052 54.7682 16.2838C55.415 15.0451 56.2714 14.0558 57.3377 13.316C58.4214 12.559 59.5662 12.1806 60.7723 12.1806C61.1568 12.1806 61.4103 12.258 61.5326 12.4128C61.6725 12.5504 61.7861 12.8085 61.8735 13.187C62.2405 13.1182 62.6251 13.0838 63.0271 13.0838C63.8836 13.0838 64.3118 13.3848 64.3118 13.987C64.3118 14.3483 64.1807 15.2085 63.9185 16.5676C63.5165 18.5461 63.3155 19.9224 63.3155 20.6966C63.3155 20.9547 63.3767 21.1611 63.499 21.316C63.6389 21.4708 63.8137 21.5482 64.0234 21.5482C64.3555 21.5482 64.7575 21.3418 65.2295 20.9289C65.7014 20.4988 66.3394 19.8106 67.1434 18.8644C67.3532 18.6235 67.5891 18.5031 67.8513 18.5031C68.0785 18.5031 68.2533 18.6063 68.3757 18.8128C68.5155 19.0192 68.5854 19.3031 68.5854 19.6644C68.5854 20.3525 68.4194 20.8859 68.0873 21.2644C67.3706 22.1418 66.6103 22.8816 65.8063 23.4837C65.0022 24.0858 64.2244 24.3869 63.4728 24.3869C62.896 24.3869 62.3629 24.1977 61.8735 23.8192C61.4015 23.4235 61.0432 22.8902 60.7985 22.2192C59.8896 23.6643 58.7447 24.3869 57.3639 24.3869ZM58.3077 21.7805C58.6923 21.7805 59.0593 21.5568 59.4089 21.1095C59.7585 20.6622 60.012 20.0687 60.1693 19.3289L61.1394 14.5805C60.4052 14.5977 59.7236 14.873 59.0943 15.4063C58.4825 15.9225 57.9931 16.6106 57.6261 17.4708C57.259 18.3311 57.0755 19.2429 57.0755 20.2063C57.0755 20.7396 57.1803 21.1353 57.3901 21.3934C57.6173 21.6515 57.9232 21.7805 58.3077 21.7805Z" fill="#49687E"/>
<path d="M78.1481 18.5031C78.3753 18.5031 78.5501 18.6063 78.6724 18.8128C78.8123 19.0192 78.8822 19.3031 78.8822 19.6644C78.8822 20.3525 78.7161 20.8859 78.384 21.2644C77.6324 22.1762 76.8109 22.9246 75.9195 23.5095C75.028 24.0945 74.0055 24.3869 72.8519 24.3869C69.2862 24.3869 67.5033 21.9181 67.5033 16.9805C67.5033 16.2235 67.5295 15.458 67.582 14.6838H66.5594C66.0351 14.6838 65.6767 14.5891 65.4845 14.3999C65.3097 14.2107 65.2223 13.9096 65.2223 13.4967C65.2223 12.5332 65.6156 12.0515 66.4021 12.0515H67.8966C68.1937 10.1591 68.6482 8.43005 69.2599 6.86447C69.8717 5.29889 70.6058 4.05158 71.4623 3.12256C72.3363 2.19353 73.2714 1.72902 74.2677 1.72902C75.0018 1.72902 75.5786 2.0473 75.9981 2.68385C76.4176 3.32041 76.6274 4.1204 76.6274 5.08384C76.6274 7.75048 75.4912 10.073 73.219 12.0515H76.1554C76.4351 12.0515 76.6361 12.1117 76.7585 12.2322C76.8808 12.3526 76.942 12.5763 76.942 12.9031C76.942 14.0902 75.9544 14.6838 73.9793 14.6838H70.7806C70.7457 15.544 70.7282 16.2149 70.7282 16.6967C70.7282 18.4859 70.9379 19.7418 71.3574 20.4644C71.7944 21.1869 72.4761 21.5482 73.4025 21.5482C74.1541 21.5482 74.8183 21.3246 75.3951 20.8773C75.9719 20.43 76.6536 19.759 77.4401 18.8644C77.6499 18.6235 77.8859 18.5031 78.1481 18.5031ZM73.5598 4.20642C73.2976 4.20642 73.0005 4.5333 72.6684 5.18706C72.3537 5.82361 72.0479 6.71823 71.7507 7.87091C71.4711 9.00639 71.2351 10.2709 71.0428 11.6644C72.0741 10.787 72.8432 9.80638 73.35 8.72252C73.8744 7.62145 74.1366 6.62361 74.1366 5.72899C74.1366 4.71395 73.9443 4.20642 73.5598 4.20642Z" fill="#49687E"/>
<path d="M85.9239 12.2322C86.3259 12.2322 86.6056 12.2838 86.7629 12.387C86.9202 12.4902 86.9989 12.6623 86.9989 12.9031C86.9989 13.316 86.7716 14.787 86.3172 17.316C85.9152 19.7418 85.6792 21.1783 85.6093 21.6257C84.9626 26.0471 84.0711 29.5482 82.935 32.1288C81.7989 34.7094 80.2869 35.9997 78.3992 35.9997C77.5077 35.9997 76.7824 35.7245 76.223 35.1739C75.6637 34.6406 75.384 33.9352 75.384 33.0578C75.384 32.2492 75.5676 31.4234 75.9346 30.5804C76.3192 29.7374 77.0183 28.7654 78.0321 27.6643C79.0634 26.5805 80.5141 25.3331 82.3844 23.9224L82.4631 23.3289C82.5854 22.6923 82.7252 21.7805 82.8826 20.5934C82.533 21.8321 82.0436 22.7783 81.4143 23.4321C80.7851 24.0686 80.1209 24.3869 79.4217 24.3869C78.6351 24.3869 77.9884 24.0342 77.4815 23.3289C76.9921 22.6063 76.7474 21.7117 76.7474 20.645C76.7474 19.3547 76.8348 18.1762 77.0096 17.1096C77.1844 16.0257 77.4728 14.8816 77.8748 13.6773C78.0496 13.1612 78.2943 12.7913 78.6089 12.5677C78.9236 12.344 79.4217 12.2322 80.1034 12.2322C80.4879 12.2322 80.7501 12.2924 80.8899 12.4128C81.0473 12.5332 81.1259 12.7139 81.1259 12.9547C81.1259 13.0924 81.0298 13.5569 80.8375 14.3483C80.6627 14.9848 80.5229 15.5612 80.418 16.0773C80.2782 16.7827 80.1558 17.4622 80.051 18.116C79.9461 18.7526 79.8936 19.2773 79.8936 19.6902C79.8936 20.3439 80.0772 20.6708 80.4442 20.6708C80.7064 20.6708 81.0298 20.4128 81.4143 19.8966C81.8163 19.3805 82.2358 18.5977 82.6728 17.5483C83.1273 16.4988 83.5642 15.2085 83.9837 13.6773C84.1236 13.1612 84.3333 12.7913 84.613 12.5677C84.9101 12.344 85.3471 12.2322 85.9239 12.2322ZM78.6876 33.4965C79.1246 33.4965 79.614 32.9976 80.1558 31.9998C80.6977 31.0019 81.2395 29.3417 81.7814 27.0192C80.4355 28.1374 79.4567 29.1525 78.8449 30.0643C78.2506 30.9933 77.9535 31.8019 77.9535 32.4901C77.9535 32.7826 78.0059 33.0234 78.1108 33.2127C78.2331 33.4019 78.4254 33.4965 78.6876 33.4965Z" fill="#49687E"/>
</svg>
