<svg width="112" height="30" viewBox="0 0 112 30" fill="none" xmlns="http://www.w3.org/2000/svg">
<path d="M9.25592 28.4566L11.3138 24.8593L12.805 27.195C12.805 27.195 11.8577 27.0263 10.9948 27.4389C10.1318 27.8516 9.25592 28.4566 9.25592 28.4566Z" fill="#0038A5"/>
<path d="M7.78263 26.7411C7.62033 26.3712 7.28525 26.1057 6.888 26.0324L1.9946 25.129C0.838831 24.9156 0 23.9078 0 22.7325V8.13377C0 6.3365 0.880769 4.65333 2.35739 3.62873L5.51612 1.43696C6.76403 0.571059 8.30232 0.230403 9.79914 0.488476L21.086 2.43449C23.4239 2.83757 25.1319 4.86535 25.1319 7.23769V18.297C25.1319 19.606 24.6053 20.8601 23.6707 21.7767L19.6509 25.7193C18.1266 27.2143 15.9569 27.8503 13.8667 27.4149L11.5313 26.9283C11.115 26.8416 10.6835 26.9782 10.393 27.2887L9.41096 28.3383C9.11207 28.6578 8.58391 28.5674 8.40814 28.1668L7.78263 26.7411Z" fill="#0446DE"/>
<path d="M5.35818 5.39138C2.90429 4.89274 0.609375 6.76821 0.609375 9.27225V21.7432C0.609375 22.918 1.4475 23.9256 2.60265 24.1395L7.45041 25.0372C7.85565 25.1123 8.1955 25.3871 8.3537 25.7676L8.78865 26.8139C8.92044 27.1309 9.34169 27.1948 9.56155 26.9311L10.4006 25.9248C10.6528 25.6222 11.0358 25.4603 11.4285 25.4901L15.2831 25.7821C17.2279 25.9294 18.8872 24.3911 18.8872 22.4407V10.1322C18.8872 8.97331 18.0711 7.97472 16.9354 7.74395L5.35818 5.39138Z" fill="#0038A5"/>
<path d="M5.09632 5.37913C3.59226 5.08745 2.19531 6.23952 2.19531 7.77159V20.5948C2.19531 21.806 3.08479 22.8334 4.2835 23.0067L7.60891 23.4877C8.01375 23.5463 8.3622 23.804 8.53665 24.174L9.00395 25.1652C9.13318 25.4829 9.55334 25.5503 9.77543 25.2889L10.4793 24.4721C10.751 24.1568 11.1649 24.002 11.5768 24.0616L16.1023 24.7161C17.5718 24.9287 18.8882 23.789 18.8882 22.3042V10.0636C18.8882 8.89657 18.0609 7.89334 16.9152 7.67115L5.09632 5.37913Z" fill="white"/>
<path d="M13.7095 18.2572L6.67487 17.024C6.16305 16.9343 5.74661 17.3437 5.94461 17.8241C6.58775 19.3847 8.3841 21.838 11.5666 21.02C12.2219 20.8515 13.7043 19.9995 14.1219 18.8647C14.2262 18.5812 14.0071 18.3094 13.7095 18.2572Z" fill="#0446DE"/>
<ellipse cx="6.91374" cy="12.444" rx="1.24726" ry="2.13815" transform="rotate(-4.90348 6.91374 12.444)" fill="#0446DE"/>
<ellipse cx="13.5075" cy="13.6616" rx="1.24726" ry="2.13815" transform="rotate(-4.90348 13.5075 13.6616)" fill="#0446DE"/>
<path d="M35.7426 20.872C34.6167 20.872 33.6224 20.6308 32.7597 20.1482C31.897 19.6511 31.217 18.9712 30.7199 18.1084C30.2374 17.2457 29.9961 16.2514 29.9961 15.1255C29.9961 13.9996 30.2374 13.0053 30.7199 12.1426C31.217 11.2799 31.8897 10.6072 32.7378 10.1247C33.6005 9.62755 34.5875 9.37897 35.6988 9.37897C36.7808 9.37897 37.7605 9.64217 38.6378 10.1686C39.5152 10.6804 40.1658 11.4188 40.5899 12.3838L38.3088 13.2612C38.0749 12.7786 37.7166 12.3912 37.2341 12.0987C36.7516 11.8063 36.2032 11.66 35.5891 11.66C34.9896 11.66 34.4559 11.8136 33.988 12.1206C33.52 12.4131 33.1545 12.8225 32.8913 13.3489C32.6281 13.8607 32.4965 14.4529 32.4965 15.1255C32.4965 15.7981 32.6281 16.3976 32.8913 16.924C33.1691 17.4358 33.542 17.8452 34.0099 18.1523C34.4924 18.4448 35.0334 18.591 35.633 18.591C36.2471 18.591 36.7954 18.4374 37.278 18.1304C37.7605 17.8087 38.1187 17.3773 38.3527 16.8363L40.6338 17.7136C40.2097 18.708 39.559 19.4829 38.6817 20.0386C37.819 20.5942 36.8393 20.872 35.7426 20.872Z" fill="#282D3E"/>
<path d="M42.124 20.6088L42.1021 5.05811H44.5586L44.5806 20.6088H42.124ZM49.5594 20.6088V14.9939L52.016 14.3359V20.6088H49.5594ZM49.5594 14.9939C49.5594 14.1166 49.4571 13.444 49.2524 12.976C49.0476 12.4935 48.7625 12.1572 48.397 11.9671C48.046 11.777 47.6366 11.682 47.1687 11.682C46.3352 11.6674 45.6918 11.9379 45.2386 12.4935C44.7999 13.0492 44.5806 13.8461 44.5806 14.8842H43.6374C43.6374 13.7291 43.8056 12.7421 44.1419 11.9232C44.4928 11.0898 44.9827 10.461 45.6114 10.037C46.2402 9.59831 46.9859 9.37897 47.8486 9.37897C49.1646 9.37897 50.1882 9.7884 50.9193 10.6072C51.6504 11.4115 52.016 12.6544 52.016 14.3359L49.5594 14.9939Z" fill="#282D3E"/>
<path d="M60.711 20.6088L60.6013 18.5471V14.972C60.6013 14.2262 60.5209 13.6048 60.3601 13.1076C60.1992 12.6105 59.9433 12.2303 59.5924 11.9671C59.2561 11.7039 58.8101 11.5723 58.2545 11.5723C57.7427 11.5723 57.2894 11.682 56.8946 11.9013C56.4998 12.1206 56.1708 12.457 55.9076 12.9102L53.6704 12.1206C53.919 11.6381 54.2407 11.1848 54.6355 10.7608C55.0303 10.3367 55.5274 10.0004 56.1269 9.75184C56.7411 9.50326 57.4649 9.37897 58.2983 9.37897C59.3657 9.37897 60.2504 9.57637 60.9523 9.97117C61.6687 10.366 62.2024 10.9509 62.5534 11.7258C62.9043 12.5008 63.0798 13.4586 63.0798 14.5991L63.014 20.6088H60.711ZM57.5965 20.872C56.2805 20.872 55.2569 20.5796 54.5258 19.9947C53.8093 19.4098 53.4511 18.5837 53.4511 17.5162C53.4511 16.3757 53.8312 15.5057 54.5916 14.9062C55.3666 14.3067 56.4413 14.0069 57.8158 14.0069H60.7549V15.8932H58.6054C57.6257 15.8932 56.9385 16.0321 56.5437 16.3099C56.1489 16.5731 55.9515 16.9533 55.9515 17.4504C55.9515 17.8745 56.1196 18.2108 56.4559 18.4594C56.8069 18.6933 57.2894 18.8103 57.9035 18.8103C58.4445 18.8103 58.9125 18.686 59.3073 18.4374C59.7167 18.1742 60.0311 17.8379 60.2504 17.4285C60.4843 17.0045 60.6013 16.5512 60.6013 16.0686H61.5006C61.5006 17.5601 61.1789 18.7372 60.5355 19.5999C59.9068 20.448 58.9271 20.872 57.5965 20.872Z" fill="#282D3E"/>
<path d="M69.4934 20.872C68.3382 20.872 67.4536 20.5869 66.8395 20.0166C66.24 19.4318 65.9402 18.5983 65.9402 17.5162V6.22057H68.3748V17.0556C68.3748 17.5674 68.4918 17.9549 68.7257 18.2181C68.9743 18.4813 69.3326 18.6129 69.8005 18.6129C69.9467 18.6129 70.1075 18.5837 70.283 18.5252C70.4585 18.4667 70.6559 18.357 70.8752 18.1962L71.7745 20.0605C71.3943 20.3237 71.0141 20.5211 70.6339 20.6527C70.2538 20.7989 69.8736 20.872 69.4934 20.872ZM64.1197 11.7478V9.64217H71.3358V11.7478H64.1197Z" fill="#282D3E"/>
<path d="M83.4557 20.6088L87.1185 9.64217H89.597L85.8684 20.6088H83.4557ZM76.108 20.6088L79.6831 9.64217H81.8545L78.3233 20.6088H76.108ZM75.8887 20.6088L72.16 9.64217H74.6385L78.2136 20.6088H75.8887ZM83.4337 20.6088L79.9244 9.64217H82.0958L85.6709 20.6088H83.4337Z" fill="#282D3E"/>
<path d="M97.0929 20.6088L96.9832 18.5471V14.972C96.9832 14.2262 96.9028 13.6048 96.742 13.1076C96.5811 12.6105 96.3252 12.2303 95.9743 11.9671C95.638 11.7039 95.192 11.5723 94.6364 11.5723C94.1246 11.5723 93.6713 11.682 93.2765 11.9013C92.8817 12.1206 92.5527 12.457 92.2895 12.9102L90.0523 12.1206C90.3009 11.6381 90.6226 11.1848 91.0174 10.7608C91.4122 10.3367 91.9093 10.0004 92.5088 9.75184C93.123 9.50326 93.8468 9.37897 94.6802 9.37897C95.7477 9.37897 96.6323 9.57637 97.3342 9.97117C98.0507 10.366 98.5844 10.9509 98.9353 11.7258C99.2862 12.5008 99.4617 13.4586 99.4617 14.5991L99.3959 20.6088H97.0929ZM93.9784 20.872C92.6624 20.872 91.6388 20.5796 90.9077 19.9947C90.1912 19.4098 89.833 18.5837 89.833 17.5162C89.833 16.3757 90.2131 15.5057 90.9735 14.9062C91.7485 14.3067 92.8232 14.0069 94.1977 14.0069H97.1368V15.8932H94.9873C94.0076 15.8932 93.3204 16.0321 92.9256 16.3099C92.5308 16.5731 92.3334 16.9533 92.3334 17.4504C92.3334 17.8745 92.5015 18.2108 92.8378 18.4594C93.1888 18.6933 93.6713 18.8103 94.2854 18.8103C94.8265 18.8103 95.2944 18.686 95.6892 18.4374C96.0986 18.1742 96.413 17.8379 96.6323 17.4285C96.8662 17.0045 96.9832 16.5512 96.9832 16.0686H97.8825C97.8825 17.5601 97.5608 18.7372 96.9174 19.5999C96.2887 20.448 95.309 20.872 93.9784 20.872Z" fill="#282D3E"/>
<path d="M103.008 25.2587C102.657 25.2587 102.262 25.1929 101.823 25.0613C101.399 24.9297 100.99 24.7616 100.595 24.5568L101.516 22.5609C101.794 22.6925 102.05 22.7949 102.284 22.868C102.518 22.9557 102.708 22.9996 102.854 22.9996C103.205 22.9996 103.498 22.9045 103.731 22.7144C103.98 22.539 104.177 22.2758 104.324 21.9248L105.618 18.898L109.325 9.64217H112L106.912 21.7713C106.605 22.4732 106.29 23.0873 105.969 23.6137C105.662 24.1401 105.274 24.5422 104.806 24.82C104.338 25.1125 103.739 25.2587 103.008 25.2587ZM104.96 20.6088L100.047 9.64217H102.723L106.539 18.8761L107.329 20.6088H104.96Z" fill="#282D3E"/>
</svg>
