<svg width="256" height="258" viewBox="0 0 256 258" fill="none" xmlns="http://www.w3.org/2000/svg">
<path d="M0 8C0 3.58173 3.58172 0 8 0H248C252.418 0 256 3.58172 256 8V250C256 254.418 252.418 258 248 258H8C3.58172 258 0 254.418 0 250V8Z" fill="white"/>
<path d="M216 194V77L57 226H184C201.673 226 216 211.673 216 194Z" fill="url(#paint0_linear_10843_9529)" fill-opacity="0.23"/>
<path d="M216 58V194C216 211.673 201.673 226 184 226H36" stroke="url(#paint1_linear_10843_9529)"/>
<rect x="144" y="154" width="56" height="56" rx="28" fill="#B78DEB"/>
<path fill-rule="evenodd" clip-rule="evenodd" d="M166.104 171.926C164.991 170.813 163.187 170.813 162.074 171.926C160.961 173.039 160.961 174.843 162.074 175.955L168.119 182L162.075 188.045C160.962 189.158 160.962 190.962 162.075 192.074C163.187 193.187 164.991 193.187 166.104 192.074L172.149 186.03L178.192 192.074C179.305 193.186 181.109 193.186 182.222 192.074C183.335 190.961 183.335 189.157 182.222 188.044L176.178 182L182.222 175.956C183.335 174.843 183.335 173.039 182.222 171.927C181.11 170.814 179.306 170.814 178.193 171.927L172.149 177.971L166.104 171.926Z" fill="white"/>
<rect x="148" y="98" width="48" height="48" rx="24" fill="#49E670"/>
<path d="M172 90C185.255 90 196 79.2548 196 66C196 52.7451 185.255 42 172 42C158.745 42 148 52.7451 148 66C148 79.2548 158.745 90 172 90Z" fill="#0446DE"/>
<path d="M160 59.0526C160 56.2621 162.262 54 165.053 54H179.947C182.738 54 185 56.2621 185 59.0526V72.2232C185 75.0137 182.738 77.2759 179.947 77.2759H176.898C176.169 77.2759 175.475 77.5913 174.995 78.1411L173.253 80.1366C172.855 80.5933 172.145 80.5933 171.747 80.1366L170.005 78.1411C169.525 77.5913 168.831 77.2759 168.102 77.2759H165.053C162.262 77.2759 160 75.0137 160 72.2232V59.0526Z" fill="white"/>
<path d="M167 69.0513C167 68.4707 167.79 68.5 168.5 68.5L176.5 68.5C177.21 68.5 178 68.4707 178 69.0513C178 71.2321 175.665 74 173 74L172 74C169.335 74 167 71.2321 167 69.0513Z" fill="#0446DE"/>
<defs>
<linearGradient id="paint0_linear_10843_9529" x1="204.422" y1="226" x2="139.955" y2="145.724" gradientUnits="userSpaceOnUse">
<stop stop-color="#B78DEB"/>
<stop offset="1" stop-color="#B78DEB" stop-opacity="0"/>
</linearGradient>
<linearGradient id="paint1_linear_10843_9529" x1="133.036" y1="138.953" x2="200.158" y2="215.646" gradientUnits="userSpaceOnUse">
<stop stop-color="#B78DEB" stop-opacity="0"/>
<stop offset="1" stop-color="#B78DEB"/>
</linearGradient>
</defs>
</svg>
