<svg width="87" height="23" viewBox="0 0 87 23" fill="none" xmlns="http://www.w3.org/2000/svg">
<path fill-rule="evenodd" clip-rule="evenodd" d="M10.8729 6.19705L10.6268 6.22279V6.61165C10.6268 6.99835 10.6256 7.00058 10.4338 7.00058C10.2583 7.00058 10.2391 7.02264 10.2205 7.24611C10.202 7.4703 10.1816 7.49342 9.98691 7.51214L9.77363 7.5327V7.91725V8.30179L9.56035 8.32235C9.34707 8.34284 9.34707 8.34284 9.32752 8.75207C9.30822 9.15723 9.30606 9.16129 9.11423 9.16129C8.93724 9.16129 8.92051 9.18074 8.92051 9.38633C8.92051 9.59232 8.90246 9.61308 8.70723 9.63187C8.49395 9.65236 8.49395 9.65236 8.47439 10.0616C8.4551 10.4668 8.45293 10.4708 8.26111 10.4708C8.08412 10.4708 8.06739 10.4903 8.06739 10.6959C8.06739 10.9018 8.04934 10.9226 7.85411 10.9414C7.64109 10.9619 7.64082 10.9624 7.6214 11.3672C7.60204 11.7707 7.60106 11.7726 7.39171 11.7928C7.18211 11.813 7.18138 11.8144 7.16189 12.2223C7.1426 12.6275 7.14043 12.6315 6.94861 12.6315C6.77097 12.6315 6.75489 12.6505 6.75489 12.8607C6.75489 13.0789 6.74393 13.0899 6.5252 13.0899C6.31376 13.0899 6.29551 13.0743 6.29551 12.8934C6.29551 12.7188 6.27366 12.697 6.09864 12.697C5.9181 12.697 5.90176 12.6783 5.90176 12.472C5.90176 12.266 5.88372 12.2452 5.68848 12.2264C5.47546 12.2059 5.4752 12.2054 5.45578 11.8006C5.43642 11.3971 5.43543 11.3952 5.22609 11.375C5.05159 11.3582 5.01228 11.3241 4.99509 11.1747C4.9777 11.0239 4.94298 10.9946 4.78181 10.9946C4.59025 10.9946 4.58927 10.9966 4.58927 11.3875V11.7803H4.35958C4.14085 11.7803 4.12989 11.7913 4.12989 12.0095C4.12989 12.2184 4.11316 12.2387 3.94063 12.2387C3.75622 12.2387 3.75025 12.2494 3.70576 12.6643C3.66107 13.0805 3.65588 13.0899 3.46839 13.0899H3.27677V13.5155V13.9411H3.04708C2.82835 13.9411 2.81739 13.952 2.81739 14.1702C2.81739 14.3812 2.80177 14.3994 2.62052 14.3994H2.42364V14.825V15.2506H2.19396H1.96427V15.6762V16.1018H1.76739C1.58614 16.1018 1.57052 16.12 1.57052 16.3309C1.57052 16.5492 1.55956 16.5601 1.34083 16.5601C1.13182 16.5601 1.11115 16.577 1.11115 16.7476C1.11115 16.9211 1.13398 16.9383 1.41564 16.9768C1.58305 16.9997 1.87837 17.0184 2.07189 17.0184H2.42364V16.7893C2.42364 16.571 2.4346 16.5601 2.65333 16.5601C2.87206 16.5601 2.88302 16.5492 2.88302 16.3309C2.88302 16.12 2.89864 16.1018 3.07989 16.1018C3.25491 16.1018 3.27677 16.08 3.27677 15.9053C3.27677 15.7245 3.29501 15.7089 3.50645 15.7089C3.72518 15.7089 3.73614 15.698 3.73614 15.4797C3.73614 15.2688 3.75176 15.2506 3.93302 15.2506C4.10804 15.2506 4.12989 15.2288 4.12989 15.0542C4.12989 14.8733 4.14813 14.8577 4.35958 14.8577C4.56991 14.8577 4.58927 14.8739 4.58927 15.05C4.58927 15.2191 4.61499 15.2448 4.80255 15.2628C4.9901 15.2808 5.01832 15.309 5.03637 15.4961L5.05697 15.7089H6.13559H7.21426V15.5125C7.21426 15.3388 7.23657 15.3161 7.4072 15.3161C7.58275 15.3161 7.60191 15.294 7.62048 15.0705C7.63905 14.8463 7.6594 14.8232 7.85411 14.8045L8.06739 14.7839V14.3994V14.0148L8.28067 13.9943C8.46822 13.9763 8.49644 13.9481 8.51449 13.761C8.5326 13.5739 8.55833 13.5482 8.72777 13.5482C8.91959 13.5482 8.92051 13.5501 8.92051 13.9411C8.92051 14.3321 8.92136 14.3339 9.11345 14.3339C9.28899 14.3339 9.30816 14.356 9.32673 14.5794C9.3453 14.8036 9.36564 14.8268 9.56035 14.8455C9.74791 14.8636 9.77363 14.8892 9.77363 15.0583C9.77363 15.2344 9.79299 15.2506 10.0033 15.2506H10.233V14.825V14.3994H10.4299C10.6216 14.3994 10.6268 14.3911 10.6268 14.0812C10.6268 13.9061 10.6455 13.6262 10.6685 13.4592L10.7102 13.1553H11.0886H11.467L11.5127 13.5482C11.5569 13.9276 11.5649 13.9411 11.7488 13.9411C11.9167 13.9411 11.9393 13.9177 11.9393 13.7446C11.9393 13.5638 11.9575 13.5482 12.1689 13.5482C12.3877 13.5482 12.3986 13.5373 12.3986 13.319C12.3986 13.1081 12.4142 13.0899 12.5955 13.0899C12.7768 13.0899 12.7924 13.1081 12.7924 13.319C12.7924 13.5373 12.8033 13.5482 13.0221 13.5482C13.2408 13.5482 13.2518 13.5591 13.2518 13.7774C13.2518 13.9866 13.2683 14.0065 13.4422 14.0065C13.6261 14.0065 13.6342 14.02 13.6783 14.3994C13.7225 14.7788 13.7306 14.7922 13.9144 14.7922C14.0883 14.7922 14.1049 14.8122 14.1049 15.0214C14.1049 15.2324 14.1205 15.2506 14.3018 15.2506C14.483 15.2506 14.4986 15.2688 14.4986 15.4797C14.4986 15.6974 14.51 15.7089 14.7252 15.7089H14.9518L14.9713 16.1181L14.9908 16.5274L15.4338 16.5467L15.8768 16.5661V16.334C15.8768 16.1196 15.8919 16.1018 16.0736 16.1018C16.2477 16.1018 16.2705 16.0795 16.2705 15.9095C16.2705 15.7404 16.2962 15.7147 16.4838 15.6967C16.6713 15.6787 16.6996 15.6505 16.7176 15.4634C16.7357 15.2762 16.7614 15.2506 16.9309 15.2506C17.1013 15.2506 17.1236 15.2278 17.1236 15.0542C17.1236 14.8733 17.1419 14.8577 17.3533 14.8577C17.572 14.8577 17.583 14.8468 17.583 14.6286C17.583 14.4103 17.594 14.3994 17.8127 14.3994C18.0241 14.3994 18.0424 14.3838 18.0424 14.203C18.0424 14.0283 18.0642 14.0065 18.2392 14.0065C18.4143 14.0065 18.4361 14.0283 18.4361 14.203C18.4361 14.3766 18.4584 14.3994 18.6289 14.3994C18.7983 14.3994 18.824 14.4251 18.8421 14.6122C18.8602 14.7993 18.8884 14.8275 19.076 14.8455C19.2635 14.8636 19.2892 14.8892 19.2892 15.0583C19.2892 15.2344 19.3086 15.2506 19.5189 15.2506C19.7377 15.2506 19.7486 15.2615 19.7486 15.4797C19.7486 15.6907 19.7642 15.7089 19.9455 15.7089C20.1205 15.7089 20.1424 15.7307 20.1424 15.9053C20.1424 16.0862 20.1606 16.1018 20.3721 16.1018C20.5908 16.1018 20.6017 16.1127 20.6017 16.3309C20.6017 16.5492 20.6127 16.5601 20.8314 16.5601C21.0429 16.5601 21.0611 16.5757 21.0611 16.7565C21.0611 16.9312 21.083 16.953 21.258 16.953C21.4392 16.953 21.4549 16.9712 21.4549 17.1821V17.4113H21.9142C22.4281 17.4113 22.4103 17.4347 22.3319 16.8639C22.2933 16.5829 22.276 16.5601 22.1022 16.5601C21.9312 16.5601 21.9142 16.5395 21.9142 16.3309C21.9142 16.1213 21.8979 16.1018 21.7226 16.1018C21.5351 16.1018 21.5299 16.0924 21.4853 15.6762C21.4408 15.2613 21.4348 15.2506 21.2504 15.2506C21.0779 15.2506 21.0611 15.2303 21.0611 15.0214C21.0611 14.8032 21.0502 14.7922 20.8314 14.7922H20.6017V14.3667V13.9411H20.409C20.2396 13.9411 20.2138 13.9154 20.1957 13.7283C20.1777 13.5411 20.1495 13.513 19.9619 13.495L19.7486 13.4744V13.0899V12.7053L19.5353 12.6848C19.3478 12.6668 19.3196 12.6386 19.3015 12.4515C19.2836 12.2666 19.2567 12.2387 19.0959 12.2387C18.9165 12.2387 18.9093 12.2255 18.8651 11.8131C18.8204 11.3968 18.8152 11.3875 18.6277 11.3875C18.4525 11.3875 18.4361 11.3679 18.4361 11.1583C18.4361 10.9494 18.4194 10.9292 18.2469 10.9292C18.0625 10.9292 18.0565 10.9184 18.012 10.5036C17.9673 10.0873 17.9621 10.078 17.7746 10.078C17.6054 10.078 17.583 10.0549 17.583 9.88153C17.583 9.70069 17.5648 9.6851 17.3533 9.6851C17.1419 9.6851 17.1236 9.70069 17.1236 9.88153C17.1236 10.0549 17.1012 10.078 16.932 10.078C16.7445 10.078 16.7393 10.0873 16.6946 10.5036C16.6501 10.9184 16.6442 10.9292 16.4598 10.9292C16.2872 10.9292 16.2705 10.9494 16.2705 11.1583C16.2705 11.3676 16.254 11.3875 16.0801 11.3875C15.8962 11.3875 15.8881 11.4009 15.8439 11.7803C15.7998 12.1598 15.7917 12.1732 15.6078 12.1732C15.44 12.1732 15.4174 12.1499 15.4174 11.9768C15.4174 11.8034 15.3949 11.7803 15.2258 11.7803C15.0383 11.7803 15.0331 11.771 14.9884 11.3547C14.9442 10.9423 14.937 10.9292 14.7576 10.9292C14.5968 10.9292 14.5699 10.9013 14.552 10.7164C14.5339 10.5292 14.5057 10.5011 14.3182 10.4831L14.1049 10.4625V10.078V9.69342L13.8916 9.67286C13.704 9.65485 13.6758 9.6267 13.6578 9.43957C13.6397 9.25244 13.6139 9.22677 13.4445 9.22677C13.268 9.22677 13.2518 9.20745 13.2518 8.9976C13.2518 8.78801 13.2354 8.76844 13.0601 8.76844C12.8726 8.76844 12.8675 8.75907 12.8228 8.34284C12.7785 7.93041 12.7714 7.91725 12.592 7.91725C12.4312 7.91725 12.4043 7.88935 12.3864 7.70445C12.3683 7.51732 12.3401 7.48916 12.1525 7.47116C11.9573 7.45236 11.9393 7.43161 11.9393 7.22562C11.9393 7.02061 11.9222 7.00058 11.7476 7.00058C11.5601 7.00058 11.555 6.99121 11.5103 6.57498C11.4595 6.10238 11.5076 6.13086 10.8729 6.19705ZM23.44 7.50553C23.254 7.52923 23.2267 7.55726 23.2267 7.72494V7.91725H22.8043H22.382L22.3613 8.13004C22.3433 8.31717 22.3151 8.34533 22.1275 8.36333C21.94 8.38141 21.9142 8.40707 21.9142 8.57613C21.9142 8.75226 21.8949 8.76844 21.6846 8.76844H21.4549V9.19403C21.4549 9.61864 21.4544 9.61963 21.2671 9.61963C21.0897 9.61963 21.0771 9.63842 21.038 9.96338C21.0152 10.1524 20.9963 10.447 20.9961 10.6181C20.9955 10.9199 20.9897 10.9292 20.7986 10.9292H20.6017V12.0095V13.0899H20.7895C20.9669 13.0899 20.9795 13.1087 21.0186 13.4336C21.0414 13.6226 21.0603 13.9173 21.0605 14.0884C21.0611 14.3902 21.067 14.3994 21.258 14.3994C21.4392 14.3994 21.4549 14.4176 21.4549 14.6286C21.4549 14.8395 21.4705 14.8577 21.6517 14.8577C21.8268 14.8577 21.8486 14.8795 21.8486 15.0542C21.8486 15.235 21.8669 15.2506 22.0783 15.2506C22.297 15.2506 22.308 15.2615 22.308 15.4797C22.308 15.698 22.319 15.7089 22.5377 15.7089C22.7464 15.7089 22.7674 15.7259 22.7674 15.8952V16.0814L23.7875 16.1253C24.3486 16.1494 25.1312 16.1496 25.5266 16.1257L26.2455 16.0821V15.8955C26.2455 15.7095 26.2469 15.7089 26.672 15.7089H27.0986V15.4797C27.0986 15.2615 27.1096 15.2506 27.3283 15.2506C27.5397 15.2506 27.558 15.235 27.558 15.0542C27.558 14.8802 27.5802 14.8577 27.7518 14.8577C27.9456 14.8577 27.9458 14.8573 27.9651 14.4158L27.9845 13.9738L28.1978 13.9533L28.4111 13.9327V12.1127C28.4111 11.1117 28.3925 10.1576 28.3698 9.99245C28.3338 9.72982 28.307 9.68969 28.1566 9.67227C27.9941 9.65348 27.9835 9.62991 27.9651 9.24707C27.9458 8.84354 27.9448 8.84164 27.7354 8.82147C27.5512 8.80366 27.5226 8.77479 27.5046 8.58838C27.4865 8.40125 27.4608 8.37558 27.2914 8.37558C27.1148 8.37558 27.0986 8.35626 27.0986 8.14641V7.91725H26.4793H25.8601L25.8395 7.70445L25.8189 7.49165L24.7361 7.48497C24.1406 7.48137 23.5574 7.4906 23.44 7.50553ZM29.7018 7.50258C29.6777 7.52655 29.658 7.62967 29.658 7.73175C29.658 7.8942 29.6335 7.91725 29.4611 7.91725H29.2642V11.7762V15.6351L29.4775 15.6557C29.6651 15.6737 29.6933 15.7018 29.7113 15.889L29.7319 16.1018H31.8934H34.0549V15.9138C34.0549 15.7329 34.0695 15.7242 34.4442 15.6819L34.8336 15.6379L34.8792 15.274C34.9235 14.9203 34.8713 14.0791 34.8007 14.0087C34.7815 13.9895 34.1259 13.9686 33.3439 13.9623C32.5619 13.9559 31.8113 13.9486 31.6759 13.9459L31.4299 13.9411V10.9292V7.91725H31.2002C30.9912 7.91725 30.9705 7.90035 30.9705 7.72992C30.9705 7.55287 30.9516 7.54036 30.626 7.50134C30.1751 7.44732 29.7566 7.44785 29.7018 7.50258ZM34.2353 7.50344C34.0133 7.52949 33.9892 7.55117 33.9892 7.72474C33.9892 7.90251 33.9709 7.91725 33.7504 7.91725H33.5115L33.553 8.261C33.5757 8.45009 33.5946 8.74473 33.5949 8.91576C33.5955 9.21754 33.6013 9.22677 33.7924 9.22677H33.9892V9.65236V10.078H34.2189H34.4486L34.4493 10.4544C34.4506 11.1186 34.5063 11.3121 34.7027 11.3348C34.8676 11.3539 34.876 11.374 34.8946 11.7967C34.9139 12.2382 34.9141 12.2387 35.1079 12.2387H35.3017V12.6643V13.0899H35.5314H35.7611V14.5958V16.1018H36.8439H37.9267V14.6327V13.1637L38.14 13.1431L38.3533 13.1226L38.3727 12.6806C38.3921 12.2391 38.3923 12.2387 38.586 12.2387H38.7798V11.8131V11.3875H38.9701C39.1575 11.3875 39.161 11.3806 39.2064 10.9292C39.2518 10.4777 39.2554 10.4708 39.4427 10.4708C39.6265 10.4708 39.633 10.4601 39.633 10.1526C39.633 9.97752 39.6517 9.69761 39.6747 9.53058C39.7133 9.24956 39.7306 9.22677 39.9044 9.22677H40.0923V8.76844V8.3101H40.2892C40.4642 8.3101 40.4861 8.2883 40.4861 8.11367C40.4861 7.93905 40.4642 7.91725 40.2892 7.91725C40.1165 7.91725 40.0923 7.89433 40.0923 7.73051V7.54377L39.5117 7.50625C39.1923 7.48563 38.8084 7.4851 38.6586 7.50514C38.4108 7.53833 38.3861 7.5587 38.3861 7.72946C38.3861 7.90042 38.3656 7.91725 38.1564 7.91725H37.9267V8.23546C37.9267 8.41054 37.9081 8.68882 37.8854 8.85395C37.8494 9.11657 37.8226 9.15671 37.6722 9.17413C37.5078 9.19318 37.4993 9.21361 37.4807 9.636C37.4616 10.0732 37.4593 10.078 37.2751 10.078C37.0943 10.078 37.0876 10.0905 37.0432 10.5036C37.0017 10.8899 36.9837 10.9292 36.8476 10.9292C36.719 10.9292 36.6917 10.8859 36.656 10.6253C36.633 10.4583 36.6142 10.1784 36.6142 10.0033C36.6142 9.69656 36.6074 9.6851 36.4258 9.6851C36.2406 9.6851 36.2367 9.67731 36.1922 9.22677C36.1474 8.77348 36.1447 8.76844 35.954 8.76844H35.7611V8.34284V7.91725H35.5314C35.32 7.91725 35.3017 7.90166 35.3017 7.72082C35.3017 7.57297 35.2715 7.52439 35.1797 7.52439C35.1125 7.52439 34.9279 7.51319 34.7695 7.49944C34.611 7.48576 34.3707 7.48752 34.2353 7.50344ZM41.5853 7.50658C41.3626 7.52982 41.3392 7.55058 41.3392 7.72474C41.3392 7.89498 41.3164 7.91725 41.1423 7.91725H40.9455V8.34284C40.9455 8.76673 40.9447 8.76844 40.7591 8.76844H40.5727L40.5295 10.389C40.5058 11.2803 40.4863 12.5473 40.4862 13.2044L40.4861 14.3994H40.2892H40.0923V15.2506V16.1018H41.1752H42.258V15.8726C42.258 15.6616 42.2736 15.6434 42.4548 15.6434H42.6517L42.6523 14.0556C42.6526 13.1823 42.6715 12.3131 42.6942 12.1241C42.7334 11.7991 42.7459 11.7803 42.9233 11.7803H43.1111V12.6643V13.5482H43.2983H43.4854L43.5241 14.1446C43.5455 14.4727 43.5789 14.757 43.5986 14.7767C43.6602 14.8381 45.2392 14.877 45.6949 14.8283L46.1298 14.7818V14.4688C46.1298 14.2967 46.1484 14.0207 46.1711 13.8555C46.2071 13.5929 46.2339 13.5528 46.3844 13.5354L46.5564 13.5155L46.5748 12.6806L46.5931 11.8458H46.7881H46.983L46.9832 12.4515C46.9832 12.7846 47.0026 13.6538 47.0263 14.383L47.0694 15.7089H47.2559C47.4193 15.7089 47.4423 15.7332 47.4423 15.9053V16.1018H48.5251H49.608V15.0214V13.9411H49.4216H49.2352L49.192 12.3205C49.1683 11.4292 49.1488 10.2654 49.1487 9.73421L49.1486 8.76844H48.9517H48.7548V8.34284V7.91725H48.5621C48.3926 7.91725 48.3669 7.89158 48.3488 7.70445L48.3283 7.49165L47.7048 7.47089C47.3619 7.45944 46.8673 7.46932 46.6056 7.49283C46.1336 7.53519 46.1298 7.53709 46.1298 7.72638C46.1298 7.89276 46.1058 7.91725 45.9421 7.91725C45.7646 7.91725 45.7521 7.93604 45.713 8.261C45.6902 8.45009 45.6713 8.74473 45.6711 8.91576C45.6705 9.21754 45.6646 9.22677 45.4736 9.22677H45.2767V10.3071V11.3875H44.8502H44.4236V10.6109C44.4236 10.1838 44.4048 9.69761 44.3819 9.53058C44.3464 9.27267 44.3181 9.22677 44.1941 9.22677C44.067 9.22677 44.0428 9.18231 44.0067 8.88302C43.984 8.69392 43.9651 8.39928 43.9648 8.22826L43.9642 7.91725H43.7345C43.5255 7.91725 43.5048 7.90035 43.5048 7.72972C43.5048 7.55627 43.482 7.53905 43.2003 7.50055C42.8875 7.4578 42.0222 7.46101 41.5853 7.50658ZM52.0197 7.50474L50.9205 7.52753V7.72239C50.9205 7.9014 50.9018 7.91725 50.6908 7.91725H50.4611V12.0095V16.1018H51.535H52.6089L52.6506 15.798C52.6736 15.6309 52.6923 15.1448 52.6923 14.7176V13.9411H52.8564C52.9949 13.9411 53.0205 13.9105 53.0205 13.7446V13.5482H53.7988C54.2269 13.5482 54.7125 13.5297 54.878 13.507C55.1413 13.4711 55.1815 13.4444 55.1989 13.2942C55.216 13.1475 55.2546 13.1197 55.465 13.1023C55.689 13.0838 55.7111 13.0647 55.7111 12.8895C55.7111 12.7193 55.7338 12.697 55.9079 12.697C56.0892 12.697 56.1048 12.6788 56.1048 12.4678C56.1048 12.2496 56.1158 12.2387 56.3345 12.2387H56.5642V11.8131V11.3875H56.7611H56.9579V10.5363V9.6851H56.7695C56.5843 9.6851 56.5804 9.67731 56.5359 9.22677C56.4912 8.77348 56.4885 8.76844 56.2977 8.76844C56.121 8.76844 56.1048 8.74919 56.1048 8.53927C56.1048 8.32104 56.0939 8.3101 55.8751 8.3101C55.6637 8.3101 55.6454 8.29452 55.6454 8.11367V7.91725H55.022H54.3986V7.72082C54.3986 7.52701 54.3939 7.52439 54.0468 7.52439C53.8533 7.52439 53.5654 7.51483 53.407 7.50317C53.2485 7.49152 52.6242 7.49217 52.0197 7.50474ZM58.0572 7.50658C57.8344 7.52982 57.8111 7.55058 57.8111 7.72474C57.8111 7.89498 57.7883 7.91725 57.6142 7.91725H57.4173V12.0095V16.1018H58.5001H59.5829V15.9053C59.5829 15.7307 59.6048 15.7089 59.7798 15.7089H59.9767V14.203V12.697H61.0595H62.1423V14.3994V16.1018H63.2162H64.2901L64.3318 15.798C64.3855 15.4071 64.3866 8.22688 64.333 7.83691L64.2925 7.54187L63.747 7.50795C63.4469 7.48923 63.0665 7.48916 62.9016 7.50769C62.623 7.53905 62.6017 7.55477 62.6017 7.72933C62.6017 7.90042 62.5811 7.91725 62.372 7.91725H62.1423V9.4232V10.9292H61.0595H59.9767V9.4232V7.91725H59.7798C59.607 7.91725 59.5829 7.89439 59.5829 7.72992C59.5829 7.55287 59.5641 7.54036 59.2384 7.50134C58.8863 7.45917 58.4952 7.46088 58.0572 7.50658ZM67.9993 7.50625C67.8132 7.52936 67.7861 7.55713 67.7861 7.72494V7.91725H67.3595H66.9329V8.11367C66.9329 8.29452 66.9147 8.3101 66.7032 8.3101C66.4853 8.3101 66.4736 8.32163 66.4736 8.53514C66.4736 8.74113 66.4555 8.76189 66.2603 8.78068C66.0727 8.79869 66.0445 8.82684 66.0265 9.01397C66.0083 9.2011 65.9826 9.22677 65.8132 9.22677H65.6204V9.84879V10.4708H65.4329C65.2516 10.4708 65.244 10.484 65.2032 10.8733C65.1498 11.3837 65.15 12.0954 65.2041 12.9098L65.2465 13.5482H65.4335C65.6198 13.5482 65.6204 13.5496 65.6204 13.9738C65.6204 14.3992 65.6205 14.3994 65.8097 14.3994C65.994 14.3994 66.0001 14.4104 66.0442 14.8212C66.0887 15.2362 66.0928 15.2433 66.2979 15.2632C66.4696 15.2798 66.51 15.3146 66.5268 15.4606C66.5459 15.6252 66.5751 15.641 66.937 15.6819C67.3077 15.7237 67.3267 15.7346 67.3267 15.9059V16.086L68.2181 16.1336C68.7084 16.1598 69.4909 16.1601 69.9571 16.1342L70.8048 16.0872V15.898C70.8048 15.7089 70.8048 15.7089 71.2314 15.7089H71.6579V15.4797C71.6579 15.2615 71.6689 15.2506 71.8876 15.2506H72.1173V14.825V14.3994H72.347H72.5767V13.9738V13.5482H72.7736H72.9704V12.0095V10.4708H72.7736H72.5767V9.84879V9.22677H72.347C72.1283 9.22677 72.1173 9.21583 72.1173 8.9976C72.1173 8.78775 72.1011 8.76844 71.9246 8.76844C71.7551 8.76844 71.7294 8.74277 71.7113 8.55564C71.6932 8.36851 71.665 8.34035 71.4775 8.32235C71.2899 8.30427 71.2642 8.27861 71.2642 8.10955V7.91725H70.8376C70.412 7.91725 70.4111 7.91679 70.4111 7.72992C70.4111 7.55287 70.3922 7.54036 70.0665 7.50134C69.7045 7.45793 68.3638 7.46114 67.9993 7.50625ZM75.3821 7.50658C75.1594 7.52982 75.136 7.55058 75.136 7.72474V7.91725H74.7095H74.2829V8.10955C74.2829 8.27861 74.2572 8.30427 74.0696 8.32235C73.8821 8.34035 73.8539 8.36851 73.8358 8.55564C73.818 8.74008 73.7908 8.76844 73.6317 8.76844C73.4592 8.76844 73.4455 8.78926 73.4067 9.11219C73.3839 9.30122 73.3653 9.73585 73.3653 10.078C73.3653 10.4201 73.3839 10.8547 73.4067 11.0437C73.4455 11.3667 73.4592 11.3875 73.6317 11.3875C73.7908 11.3875 73.818 11.4158 73.8358 11.6003C73.8539 11.7874 73.8821 11.8156 74.0696 11.8336C74.2572 11.8516 74.2829 11.8773 74.2829 12.0464V12.2387H74.7054H75.1277L75.1483 12.4515C75.1689 12.6643 75.1689 12.6643 75.579 12.6838C75.9836 12.703 75.9892 12.7058 75.9892 12.8936C75.9892 13.083 75.9913 13.084 76.4321 13.1032L76.8751 13.1226L76.8956 13.3354C76.9138 13.5225 76.9395 13.5482 77.1089 13.5482C77.2855 13.5482 77.3017 13.5675 77.3017 13.7774C77.3017 13.9883 77.2861 14.0065 77.1048 14.0065C76.9294 14.0065 76.9079 14.0281 76.9079 14.2049V14.4032L76.0384 14.3849L75.1689 14.3667L75.1483 14.1539L75.1277 13.9411H74.7054H74.2829V13.7446C74.2829 13.57 74.2611 13.5482 74.0861 13.5482C73.911 13.5482 73.8892 13.57 73.8892 13.7446C73.8892 13.9248 73.8705 13.9411 73.6636 13.9411C73.4572 13.9411 73.4364 13.9591 73.4175 14.1539C73.3994 14.3416 73.3716 14.3691 73.1808 14.3874L72.9647 14.4081L72.9839 14.8457C73.0025 15.2664 73.0101 15.2841 73.1797 15.3037C73.3161 15.3194 73.3608 15.364 73.3766 15.5001C73.3962 15.6696 73.4136 15.6769 73.84 15.6956C74.2767 15.7146 74.2829 15.7175 74.2829 15.8981V16.0813L75.275 16.1242C75.8207 16.1477 76.6918 16.1477 77.211 16.1242L78.1548 16.0814V15.8952C78.1548 15.7259 78.1758 15.7089 78.3845 15.7089C78.5948 15.7089 78.6142 15.6927 78.6142 15.5166C78.6142 15.3476 78.6399 15.3219 78.8275 15.3038C79.015 15.2858 79.0432 15.2577 79.0613 15.0705C79.0792 14.8856 79.1061 14.8577 79.2669 14.8577C79.4463 14.8577 79.4534 14.8446 79.4977 14.4321C79.54 14.0381 79.5552 14.0065 79.7022 14.0065C79.8551 14.0065 79.861 13.9894 79.861 13.5482C79.861 13.107 79.8551 13.0899 79.7022 13.0899C79.5552 13.0899 79.54 13.0583 79.4977 12.6643C79.4532 12.2494 79.4472 12.2387 79.2628 12.2387C79.0903 12.2387 79.0735 12.2184 79.0735 12.0095C79.0735 11.7913 79.0626 11.7803 78.8439 11.7803C78.6344 11.7803 78.6142 11.7636 78.6142 11.5915C78.6142 11.4075 78.6034 11.4016 78.1876 11.3572C77.7704 11.3126 77.761 11.3074 77.761 11.1203V10.9292H77.3017H76.8423V10.738C76.8423 10.5509 76.8329 10.5457 76.4157 10.5011C75.9999 10.4567 75.9892 10.4508 75.9892 10.2668C75.9892 10.1006 75.9655 10.078 75.7923 10.078C75.611 10.078 75.5954 10.0598 75.5954 9.84879C75.5954 9.63056 75.6064 9.61963 75.8251 9.61963C76.0366 9.61963 76.0548 9.60404 76.0548 9.4232V9.22677H76.4814H76.9079V9.4232C76.9079 9.6138 76.9172 9.61963 77.2196 9.62022C77.3911 9.62048 77.6864 9.63933 77.8759 9.66206C78.1826 9.69879 78.2204 9.72033 78.2204 9.8579C78.2204 9.98603 78.2542 10.0125 78.4173 10.0125C78.5822 10.0125 78.6142 9.98656 78.6142 9.85292C78.6142 9.72079 78.6508 9.68988 78.8275 9.67286C79.015 9.65485 79.0432 9.6267 79.0613 9.43957C79.0794 9.25244 79.1051 9.22677 79.2746 9.22677C79.4437 9.22677 79.4673 9.25014 79.4673 9.41763C79.4673 9.60745 79.4699 9.60869 79.9629 9.65479C80.2355 9.68026 80.5677 9.6834 80.7012 9.66179C80.8347 9.64012 81.0989 9.64058 81.2884 9.66278L81.6329 9.70311V12.9025V16.1018H82.7123H83.7916L83.8115 12.9315C83.8224 11.188 83.8537 9.73912 83.881 9.71188C83.9084 9.68464 84.1889 9.65708 84.5045 9.6506C85.6478 9.62716 85.5704 9.64366 85.5704 9.4232C85.5704 9.24857 85.5923 9.22677 85.7673 9.22677H85.9642V8.57201V7.91725H85.7345C85.523 7.91725 85.5048 7.90166 85.5048 7.72082V7.52439H82.7157H79.9267V7.72082V7.91725H79.0407H78.1548V7.72992C78.1548 7.55287 78.136 7.54036 77.8103 7.50134C77.4516 7.45839 75.8103 7.46192 75.3821 7.50658ZM24.0676 9.43957C24.0495 9.6267 24.0213 9.65485 23.8338 9.67286L23.6205 9.69342V10.0821C23.6205 10.4704 23.6202 10.4708 23.4236 10.4708H23.2267V11.9768V13.4827H23.416C23.6 13.4827 23.6064 13.4941 23.65 13.9L23.6948 14.3173L23.9949 14.3583C24.16 14.3809 24.5419 14.3994 24.8437 14.3994H25.3924V14.1702C25.3924 13.9613 25.4091 13.9411 25.5816 13.9411C25.766 13.9411 25.772 13.9303 25.8165 13.5155C25.8588 13.1214 25.874 13.0899 26.021 13.0899H26.1799V11.8131V10.5363H25.983H25.7861V10.1148V9.69342L25.5728 9.67286C25.3853 9.65485 25.3571 9.6267 25.339 9.43957L25.3184 9.22677H24.7033H24.0882L24.0676 9.43957ZM53.0738 9.43957C53.0567 9.61688 53.0231 9.65583 52.8728 9.67306L52.6923 9.69381V10.737V11.7803H53.3158H53.9392V11.5839C53.9392 11.4093 53.9611 11.3875 54.1361 11.3875H54.333V10.5415V9.69551L53.9064 9.64994C53.4906 9.60555 53.4798 9.59959 53.4798 9.4156C53.4798 9.25034 53.4557 9.22677 53.2871 9.22677C53.1176 9.22677 53.0919 9.25244 53.0738 9.43957ZM68.6392 9.41907C68.6392 9.58813 68.6135 9.6138 68.4259 9.63187C68.2383 9.64988 68.2101 9.67803 68.1921 9.86516C68.174 10.0523 68.1482 10.078 67.9788 10.078H67.7861V12.0095V13.9411H68.0157C68.2345 13.9411 68.2454 13.952 68.2454 14.1702V14.3994H69.0986H69.9517V14.1702C69.9517 13.9617 69.9686 13.9411 70.1394 13.9411C70.3169 13.9411 70.3294 13.9223 70.3685 13.5973C70.3913 13.4083 70.4099 12.6937 70.4099 12.0095C70.4099 11.3253 70.3913 10.6107 70.3685 10.4217C70.3294 10.0968 70.3169 10.078 70.1394 10.078C69.9686 10.078 69.9517 10.0573 69.9517 9.84879C69.9517 9.63056 69.9407 9.61963 69.722 9.61963C69.5106 9.61963 69.4923 9.60404 69.4923 9.4232V9.22677H69.0657H68.6392V9.41907Z" fill="white"/>
<path fill-rule="evenodd" clip-rule="evenodd" d="M10.6706 6.65146C10.6465 6.67542 10.6269 6.86694 10.6269 7.07706C10.6269 7.45773 10.6262 7.45898 10.43 7.45898C10.2487 7.45898 10.2331 7.47718 10.2331 7.68814C10.2331 7.89773 10.2168 7.91731 10.0415 7.91731C9.85399 7.91731 9.84881 7.92667 9.80412 8.34291C9.76008 8.75318 9.75188 8.7685 9.57686 8.7685C9.40184 8.7685 9.39363 8.78382 9.3496 9.1941C9.30491 9.61033 9.29972 9.61969 9.11223 9.61969C8.93695 9.61969 8.92061 9.63927 8.92061 9.84886C8.92061 10.0578 8.90387 10.0781 8.73135 10.0781C8.54694 10.0781 8.54097 10.0888 8.49647 10.5037C8.45178 10.9199 8.4466 10.9293 8.25911 10.9293C8.08382 10.9293 8.06748 10.9488 8.06748 11.1584C8.06748 11.368 8.05114 11.3876 7.87586 11.3876C7.68837 11.3876 7.68318 11.397 7.63849 11.8132C7.59446 12.2235 7.58626 12.2388 7.41124 12.2388C7.23621 12.2388 7.22801 12.2541 7.18398 12.6644C7.13929 13.0806 7.1341 13.09 6.94661 13.09C6.77133 13.09 6.75499 13.1095 6.75499 13.3191C6.75499 13.5374 6.74403 13.5483 6.5253 13.5483C6.30657 13.5483 6.29561 13.5374 6.29561 13.3191C6.29561 13.1093 6.2794 13.09 6.10287 13.09C5.93343 13.09 5.9077 13.0643 5.88959 12.8772C5.87154 12.69 5.84332 12.6619 5.65577 12.6439L5.44249 12.6233V12.2388V11.8542L5.22921 11.8337C5.04165 11.8157 5.01343 11.7875 4.99538 11.6004C4.97727 11.4133 4.95155 11.3876 4.7821 11.3876H4.58936V11.8132V12.2388H4.39662C4.22718 12.2388 4.20145 12.2644 4.18334 12.4516C4.1653 12.6387 4.13708 12.6669 3.94952 12.6849L3.73624 12.7054V13.1268V13.5483H3.50655H3.27687V13.9739V14.3995H3.08413C2.91468 14.3995 2.88896 14.4252 2.87084 14.6123C2.8528 14.7994 2.82458 14.8276 2.63702 14.8456L2.42374 14.8661V15.2875V15.709H2.231C2.06156 15.709 2.03583 15.7347 2.01772 15.9218C1.99967 16.1089 1.97145 16.1371 1.7839 16.1551C1.59634 16.1732 1.57062 16.1988 1.57062 16.3679V16.5602H1.99718H2.42374V16.331C2.42374 16.1128 2.4347 16.1019 2.65343 16.1019C2.86487 16.1019 2.88312 16.0863 2.88312 15.9054C2.88312 15.7308 2.90497 15.709 3.07999 15.709C3.26125 15.709 3.27687 15.6908 3.27687 15.4799C3.27687 15.2616 3.28782 15.2507 3.50655 15.2507C3.71557 15.2507 3.73624 15.2338 3.73624 15.0632C3.73624 14.8897 3.75908 14.8725 4.04074 14.834C4.20815 14.8111 4.4887 14.7924 4.66418 14.7924H4.98311V15.0215C4.98311 15.2398 4.99407 15.2507 5.2128 15.2507C5.42175 15.2507 5.44249 15.2676 5.44249 15.4379V15.6251L5.99571 15.6595C6.30001 15.6784 6.68142 15.679 6.84332 15.6608L7.13771 15.6278L7.18247 15.2428C7.22558 14.8718 7.23418 14.8578 7.41767 14.8578C7.59157 14.8578 7.60811 14.8379 7.60811 14.6287C7.60811 14.4191 7.62445 14.3995 7.79973 14.3995C7.98683 14.3995 7.99248 14.3895 8.03618 13.9822L8.081 13.5649L8.40952 13.5261C8.59025 13.5048 8.86581 13.5048 9.02193 13.5261L9.30569 13.5649L9.35045 13.9822C9.39403 14.3881 9.40046 14.3995 9.58447 14.3995C9.75103 14.3995 9.77373 14.4231 9.77373 14.5959C9.77373 14.7768 9.79198 14.7924 10.0034 14.7924H10.2331V14.3668V13.9412H10.43H10.6269V13.3191V12.6971H11.0482H11.4695L11.5152 13.1227C11.5597 13.5376 11.5657 13.5483 11.7501 13.5483C11.9226 13.5483 11.9394 13.5281 11.9394 13.3191C11.9394 13.1093 11.9556 13.09 12.1321 13.09C12.3015 13.09 12.3273 13.0643 12.3454 12.8772C12.3634 12.69 12.3916 12.6619 12.5792 12.6439C12.7838 12.6242 12.7925 12.6329 12.7925 12.8567C12.7925 13.0796 12.8027 13.09 13.0222 13.09C13.2409 13.09 13.2519 13.1009 13.2519 13.3191C13.2519 13.5287 13.2682 13.5483 13.4435 13.5483C13.631 13.5483 13.6362 13.5577 13.6808 13.9739C13.7251 14.3863 13.7322 14.3995 13.9116 14.3995C14.0724 14.3995 14.0993 14.4274 14.1172 14.6123C14.1353 14.7994 14.1635 14.8276 14.3511 14.8456C14.5463 14.8644 14.5644 14.8851 14.5644 15.0911C14.5644 15.2958 14.5815 15.3162 14.7548 15.3162C14.9387 15.3162 14.9467 15.3296 14.9909 15.709L15.0366 16.1019H15.4567H15.8768V15.9054C15.8768 15.7308 15.8987 15.709 16.0737 15.709C16.255 15.709 16.2706 15.6908 16.2706 15.4799C16.2706 15.2616 16.2816 15.2507 16.5003 15.2507C16.7117 15.2507 16.73 15.2351 16.73 15.0543C16.73 14.8796 16.7518 14.8578 16.9268 14.8578C17.1081 14.8578 17.1237 14.8396 17.1237 14.6287C17.1237 14.4104 17.1347 14.3995 17.3534 14.3995C17.5721 14.3995 17.5831 14.3886 17.5831 14.1703V13.9412H18.2024H18.8216L18.8422 14.154C18.8602 14.3402 18.889 14.3693 19.0722 14.387C19.2545 14.4046 19.2842 14.4343 19.3019 14.6162C19.3196 14.799 19.3488 14.8276 19.5354 14.8456C19.723 14.8637 19.7487 14.8893 19.7487 15.0584C19.7487 15.2275 19.772 15.2507 19.9415 15.2507C20.1109 15.2507 20.1366 15.2764 20.1547 15.4635C20.1728 15.6506 20.201 15.6788 20.3886 15.6968C20.5761 15.7148 20.6018 15.7405 20.6018 15.9096C20.6018 16.0857 20.6212 16.1019 20.8315 16.1019C21.0503 16.1019 21.0612 16.1128 21.0612 16.331C21.0612 16.542 21.0768 16.5602 21.2581 16.5602C21.4331 16.5602 21.455 16.582 21.455 16.7566C21.455 16.9381 21.4728 16.9531 21.6888 16.9531C21.9131 16.9531 21.9218 16.9444 21.9021 16.7403C21.8851 16.5639 21.8511 16.524 21.7039 16.507C21.5388 16.4881 21.523 16.4589 21.4821 16.0978C21.4399 15.7258 21.43 15.709 21.2538 15.709C21.0939 15.709 21.0668 15.6809 21.0489 15.4962C21.0309 15.3091 21.0027 15.2809 20.8151 15.2629L20.6018 15.2424V14.821V14.3995H20.3722C20.1534 14.3995 20.1425 14.3886 20.1425 14.1703C20.1425 13.9602 20.1264 13.9412 19.9487 13.9412C19.7569 13.9412 19.7548 13.9371 19.7355 13.5319C19.7159 13.1227 19.7159 13.1227 19.5026 13.1022C19.3074 13.0834 19.2893 13.0627 19.2893 12.8567C19.2893 12.652 19.2722 12.6316 19.0989 12.6316C18.915 12.6316 18.9069 12.6182 18.8628 12.2388C18.8186 11.8593 18.8105 11.8459 18.6267 11.8459C18.4528 11.8459 18.4362 11.826 18.4362 11.6168C18.4362 11.4072 18.4199 11.3876 18.2446 11.3876C18.0571 11.3876 18.0519 11.3782 18.0072 10.962C17.9627 10.5471 17.9568 10.5364 17.7724 10.5364C17.5998 10.5364 17.5831 10.5162 17.5831 10.3072C17.5831 10.089 17.5721 10.0781 17.3534 10.0781C17.1347 10.0781 17.1237 10.089 17.1237 10.3072C17.1237 10.5168 17.1074 10.5364 16.9321 10.5364C16.7446 10.5364 16.7394 10.5458 16.6947 10.962C16.6502 11.3769 16.6443 11.3876 16.4599 11.3876C16.2707 11.3876 16.2706 11.3878 16.2706 11.8132V12.2388H15.6524H15.0342L14.9885 11.8132C14.9443 11.4008 14.9371 11.3876 14.7577 11.3876C14.5969 11.3876 14.57 11.3597 14.5521 11.1748C14.534 10.9877 14.5058 10.9595 14.3183 10.9415L14.105 10.9209V10.4995V10.0781H13.8753C13.6638 10.0781 13.6456 10.0625 13.6456 9.8816C13.6456 9.70789 13.6233 9.68517 13.4527 9.68517C13.2771 9.68517 13.258 9.6631 13.2394 9.43963C13.2218 9.22749 13.1949 9.19135 13.0414 9.17367C12.8765 9.15468 12.8605 9.12528 12.82 8.76798C12.7777 8.39522 12.7697 8.38213 12.5711 8.36281C12.3926 8.34546 12.3632 8.31528 12.3454 8.13011C12.3273 7.94298 12.3015 7.91731 12.1321 7.91731C11.9556 7.91731 11.9394 7.898 11.9394 7.68814C11.9394 7.47856 11.923 7.45898 11.7477 7.45898C11.5602 7.45898 11.5551 7.44961 11.5104 7.03338L11.4647 6.60779H11.0895C10.8832 6.60779 10.6946 6.62743 10.6706 6.65146ZM22.7675 8.14648C22.7675 8.36471 22.7565 8.37564 22.5378 8.37564C22.3263 8.37564 22.3081 8.39123 22.3081 8.57207C22.3081 8.7467 22.2862 8.7685 22.1112 8.7685C21.93 8.7685 21.9143 8.7867 21.9143 8.99767C21.9143 9.20621 21.8974 9.22684 21.7264 9.22684C21.5526 9.22684 21.5353 9.24962 21.4967 9.53064C21.4737 9.69767 21.455 9.97759 21.455 10.1527C21.455 10.4626 21.4498 10.4709 21.2581 10.4709H21.0612V12.0096V13.5483H21.2549C21.4468 13.5483 21.4489 13.5524 21.4682 13.9575C21.4869 14.3469 21.4963 14.3677 21.6635 14.387C21.8281 14.406 21.842 14.4337 21.8844 14.829L21.9296 15.2507H22.3485H22.7675V15.4799V15.709H23.194H23.6206V15.9054V16.1019H24.7034H25.7862V15.9054V15.709H26.2128H26.6393V15.4799C26.6393 15.2616 26.6503 15.2507 26.869 15.2507C27.0794 15.2507 27.0987 15.2345 27.0987 15.0584C27.0987 14.8893 27.1244 14.8637 27.312 14.8456C27.4995 14.8276 27.5278 14.7994 27.5458 14.6123C27.5639 14.4252 27.5896 14.3995 27.7591 14.3995H27.9518V13.7447V13.09H28.1487H28.3456V12.0096V10.9293H28.1904C28.0557 10.9293 28.0299 10.8894 27.9936 10.6254C27.9706 10.4584 27.9518 10.1638 27.9518 9.97065C27.9518 9.6265 27.9482 9.61969 27.7602 9.61969C27.5727 9.61969 27.5675 9.61033 27.5228 9.1941C27.4784 8.77924 27.4724 8.7685 27.288 8.7685C27.1231 8.7685 27.0987 8.74414 27.0987 8.57967C27.0987 8.39568 27.0879 8.38972 26.6721 8.34533C26.255 8.30074 26.2456 8.29557 26.2456 8.1085V7.91731H24.5065H22.7675V8.14648ZM29.6587 11.4694C29.6589 13.4231 29.6778 15.1762 29.7006 15.3653L29.742 15.709H32.0877H34.4334L34.4791 15.2834C34.5214 14.8894 34.5366 14.8578 34.6836 14.8578C34.8214 14.8578 34.8424 14.8274 34.8424 14.6287V14.3995H33.1362H31.43V11.3917V8.38396L31.2167 8.3634C31.0291 8.34539 31.0009 8.31724 30.9829 8.13011L30.9622 7.91731H30.3102H29.6581L29.6587 11.4694ZM33.5956 8.34291V8.7685H33.7872C33.9747 8.7685 33.9799 8.77787 34.0246 9.1941C34.0689 9.60719 34.0757 9.61969 34.2565 9.61969C34.4407 9.61969 34.4429 9.62441 34.4621 10.0617L34.4815 10.5037L34.6948 10.5242L34.9081 10.5447V10.9661V11.3876H35.1049C35.2967 11.3876 35.3018 11.3959 35.3018 11.7058C35.3018 11.8809 35.3206 12.1608 35.3436 12.3278C35.3821 12.6089 35.3994 12.6316 35.5732 12.6316H35.7612V14.172V15.7123L36.8276 15.6943L37.894 15.6763L37.8701 15.0957C37.8569 14.7764 37.8673 14.0914 37.8933 13.5734L37.9405 12.6316H38.1274C38.3109 12.6316 38.3147 12.624 38.3338 12.2224C38.3534 11.8132 38.3534 11.8132 38.5667 11.7927C38.7748 11.7727 38.7799 11.7645 38.7799 11.458C38.7799 11.2853 38.7987 11.0072 38.8217 10.8402C38.8573 10.5806 38.885 10.5364 39.0119 10.5364C39.1476 10.5364 39.1644 10.4969 39.2065 10.0781C39.2519 9.62657 39.2555 9.61969 39.4428 9.61969H39.6331V9.1941V8.7685H39.8628H40.0924V8.34291V7.91731H39.2469H38.4015L38.3558 8.34291C38.3113 8.75744 38.3052 8.7685 38.1215 8.7685C37.9342 8.7685 37.9327 8.77184 37.9134 9.21047C37.8949 9.63285 37.8864 9.65328 37.722 9.67234C37.5715 9.68975 37.5448 9.72989 37.5087 9.99251C37.486 10.1577 37.4674 10.436 37.4674 10.611C37.4674 10.9194 37.4615 10.9293 37.2747 10.9293C37.1053 10.9293 37.0795 10.9549 37.0614 11.1421C37.0434 11.3292 37.0152 11.3573 36.8276 11.3753L36.6143 11.3959V10.9334V10.4709H36.4264C36.2525 10.4709 36.2353 10.4481 36.1967 10.1671C36.1737 10 36.1549 9.72013 36.1549 9.54505C36.1549 9.23515 36.1498 9.22684 35.9581 9.22684H35.7612V8.80537V8.38396L35.5479 8.3634C35.3604 8.34539 35.3321 8.31724 35.3141 8.13011L35.2935 7.91731H34.4446H33.5956V8.34291ZM40.9456 10.2745V12.6316H40.7487H40.5518V14.1723V15.7129L41.3885 15.6946L42.2253 15.6763L42.2424 13.1063L42.2596 10.5364H42.6854H43.1112V11.3876V12.2388H43.2989C43.4764 12.2388 43.4889 12.2576 43.528 12.5825C43.5508 12.7716 43.5697 13.1694 43.57 13.4665L43.5706 14.0066H43.7674H43.9643V14.3995V14.7924H44.8122H45.6601L45.7058 14.3668C45.7503 13.9519 45.7563 13.9412 45.9407 13.9412H46.1299V13.3938C46.1299 13.0927 46.1487 12.7096 46.1717 12.5426C46.2071 12.2847 46.2355 12.2388 46.3594 12.2388C46.4865 12.2388 46.5108 12.1943 46.5468 11.895C46.5696 11.706 46.5885 11.4114 46.5887 11.2403C46.5893 10.9385 46.5952 10.9293 46.7862 10.9293C46.9612 10.9293 46.9831 10.9075 46.9831 10.7328C46.9831 10.552 47.0013 10.5364 47.2127 10.5364H47.4424V13.1227V15.709H48.2956H49.1487V14.2031V12.6971H48.9518H48.7549V11.2014C48.7549 10.3787 48.7357 9.39157 48.7121 9.00788C48.6707 8.33145 48.6646 8.31017 48.5153 8.31017C48.3878 8.31017 48.3612 8.27625 48.3612 8.11374V7.91731H47.2456H46.1299V8.34291V8.7685H45.9331H45.7362L45.7356 9.30868C45.7353 9.60575 45.7164 10.0036 45.6937 10.1926C45.6545 10.5176 45.642 10.5364 45.4646 10.5364H45.2768V11.3876V12.2388H44.8502H44.4237V11.6914C44.4237 11.3903 44.4051 11.0089 44.3824 10.8437C44.3464 10.5811 44.3196 10.541 44.1691 10.5236L43.9971 10.5037L43.9788 9.63606L43.9605 8.7685H43.7731C43.591 8.7685 43.5846 8.75665 43.5402 8.34291L43.4945 7.91731H42.22H40.9456V10.2745ZM50.89 8.39201C50.867 8.65307 50.8571 10.3989 50.868 12.2715L50.8877 15.6763L51.7573 15.6946L52.6268 15.7128V14.5978V13.4828H52.8565C53.0578 13.4828 53.0862 13.4625 53.0862 13.3191C53.0862 13.1809 53.1168 13.1554 53.2831 13.1554C53.4493 13.1554 53.4799 13.1809 53.4799 13.3191C53.4799 13.4625 53.5083 13.4828 53.7096 13.4828C53.9211 13.4828 53.9393 13.4672 53.9393 13.2864V13.09H54.5955H55.2518V12.9C55.2518 12.7167 55.2656 12.7084 55.641 12.6649L56.0301 12.6199L56.0752 12.2002C56.119 11.7916 56.1253 11.7804 56.3094 11.7804H56.4987V10.5037V9.22684H56.3018C56.1205 9.22684 56.1049 9.20863 56.1049 8.99767C56.1049 8.77944 56.094 8.7685 55.8752 8.7685C55.6649 8.7685 55.6455 8.75233 55.6455 8.5762C55.6455 8.40714 55.6198 8.38147 55.4323 8.3634C55.2447 8.34539 55.2165 8.31724 55.1984 8.13011L55.1778 7.91731H53.0548H50.9318L50.89 8.39201ZM57.8529 8.22112C57.8299 8.38815 57.8112 10.1413 57.8112 12.117V15.709H58.6971H59.583V14.1703V12.6316L60.8135 12.6324C61.4903 12.6328 62.1548 12.6513 62.2901 12.6737L62.5362 12.7143V13.9825V15.2507H62.3721C62.2353 15.2507 62.208 15.2819 62.208 15.4382C62.208 15.6117 62.2309 15.6289 62.5125 15.6674C62.6799 15.6903 63.1524 15.709 63.5625 15.709H64.308V11.8132V7.91731H63.459H62.6101L62.5895 8.13011C62.5724 8.30742 62.5389 8.34638 62.3885 8.3636C62.2374 8.38095 62.208 8.41559 62.208 8.57639C62.208 8.73472 62.2353 8.7685 62.3632 8.7685C62.5163 8.7685 62.5188 8.77924 62.5482 9.57059C62.5646 10.0118 62.5655 10.4979 62.5502 10.651L62.5224 10.9293H61.0527H59.583V9.42326V7.91731H58.7388H57.8946L57.8529 8.22112ZM67.3924 8.10614C67.3924 8.28987 67.3812 8.29609 66.9718 8.33983L66.5511 8.38481L66.5059 8.77309C66.4626 9.14545 66.4531 9.16136 66.2743 9.16136C66.1062 9.16136 66.0858 9.18552 66.0674 9.40689C66.0489 9.63109 66.0285 9.6542 65.8338 9.67293L65.6205 9.69348V11.8173V13.9412H65.8122C65.9996 13.9412 66.0048 13.9505 66.0495 14.3668C66.094 14.7816 66.1 14.7924 66.2844 14.7924C66.4569 14.7924 66.4737 14.8126 66.4737 15.0215C66.4737 15.2398 66.4846 15.2507 66.7033 15.2507C66.9124 15.2507 66.933 15.2676 66.933 15.4382C66.933 15.6117 66.9559 15.6289 67.2375 15.6674C67.4049 15.6903 67.6855 15.709 67.861 15.709C68.1716 15.709 68.1799 15.7141 68.1799 15.9054V16.1019H69.0658H69.9518V15.9054C69.9518 15.7141 69.9601 15.709 70.2707 15.709C70.4462 15.709 70.7267 15.6903 70.8942 15.6674C71.1758 15.6289 71.1987 15.6117 71.1987 15.4382C71.1987 15.2682 71.2197 15.2507 71.4242 15.2507C71.6307 15.2507 71.6515 15.2327 71.6703 15.0379C71.6883 14.8508 71.7166 14.8226 71.9041 14.8046L72.1174 14.784V14.3626C72.1174 13.9425 72.118 13.9412 72.3052 13.9412C72.4826 13.9412 72.4951 13.9224 72.5343 13.5974C72.5882 13.1494 72.5879 11.1392 72.5337 10.3236L72.4913 9.68517H72.3044C72.13 9.68517 72.1174 9.66756 72.1174 9.42326C72.1174 9.17589 72.1064 9.16136 71.9205 9.16136C71.7455 9.16136 71.7237 9.13956 71.7237 8.96493C71.7237 8.78481 71.7049 8.7685 71.4981 8.7685C71.2916 8.7685 71.2708 8.7505 71.252 8.5557C71.234 8.36857 71.2057 8.34042 71.0182 8.32241C70.8306 8.30434 70.8049 8.27867 70.8049 8.10961V7.91731H69.0987H67.3924V8.10614ZM74.7301 8.13011C74.7121 8.31724 74.6839 8.34539 74.4963 8.3634C74.3099 8.38134 74.283 8.40766 74.283 8.57207C74.283 8.73648 74.2561 8.76281 74.0697 8.78075C73.8565 8.80124 73.8565 8.80124 73.8369 9.21047C73.8176 9.61563 73.8154 9.61969 73.6236 9.61969H73.4299V10.2745V10.9293H73.6226C73.7921 10.9293 73.8178 10.9549 73.8359 11.1421C73.854 11.3292 73.8822 11.3573 74.0697 11.3753C74.2561 11.3933 74.283 11.4196 74.283 11.584C74.283 11.7484 74.3099 11.7748 74.4963 11.7927C74.6839 11.8107 74.7121 11.8389 74.7301 12.026L74.7507 12.2388H75.1731H75.5955V12.4352C75.5955 12.6265 75.6039 12.6316 75.9145 12.6316C76.0899 12.6316 76.3705 12.6504 76.5379 12.6733C76.8196 12.7118 76.8424 12.729 76.8424 12.9024C76.8424 13.0731 76.8631 13.09 77.0721 13.09C77.2908 13.09 77.3018 13.1009 77.3018 13.3191C77.3018 13.5301 77.3174 13.5483 77.4986 13.5483C77.6737 13.5483 77.6955 13.5701 77.6955 13.7447C77.6955 13.9194 77.6737 13.9412 77.4986 13.9412C77.3174 13.9412 77.3018 13.9594 77.3018 14.1703C77.3018 14.3886 77.2908 14.3995 77.0721 14.3995C76.8606 14.3995 76.8424 14.4151 76.8424 14.5959V14.7924H76.4158H75.9893V14.5959V14.3995H75.333H74.6768V14.2106C74.6768 14.0309 74.6594 14.0195 74.3169 13.9768C73.8883 13.9234 73.8236 13.9535 73.8236 14.2069C73.8236 14.3772 73.8009 14.3995 73.6268 14.3995H73.4299V14.8251V15.2507H73.6268C73.7996 15.2507 73.8236 15.2735 73.8236 15.438C73.8236 15.6151 73.8425 15.6276 74.1682 15.6666C74.3577 15.6893 74.653 15.7082 74.8244 15.7084C75.1269 15.709 75.1361 15.7148 75.1361 15.9054V16.1019H76.219H77.3018V15.9054C77.3018 15.7148 77.311 15.709 77.6135 15.7084C77.7849 15.7082 78.0802 15.6893 78.2697 15.6666C78.5954 15.6276 78.6143 15.6151 78.6143 15.438C78.6143 15.2752 78.639 15.2507 78.8035 15.2507C78.9879 15.2507 78.9939 15.2399 79.0384 14.8251C79.0831 14.4089 79.0883 14.3995 79.2758 14.3995H79.4674V13.5483V12.6971H79.2705C79.0893 12.6971 79.0736 12.6789 79.0736 12.4679C79.0736 12.2497 79.0627 12.2388 78.844 12.2388C78.6252 12.2388 78.6143 12.2278 78.6143 12.0096C78.6143 11.7914 78.6033 11.7804 78.3846 11.7804C78.1731 11.7804 78.1549 11.7649 78.1549 11.584V11.3876H77.7283C77.3026 11.3876 77.3018 11.3872 77.3018 11.2001C77.3018 11.0266 77.2789 11.0094 76.9973 10.9709C76.8299 10.948 76.5493 10.9293 76.3738 10.9293C76.0632 10.9293 76.0549 10.9241 76.0549 10.7328C76.0549 10.5526 76.0363 10.5364 75.8292 10.5364C75.6157 10.5364 75.6024 10.523 75.5831 10.2909C75.5654 10.0777 75.539 10.0426 75.3822 10.0246C75.2421 10.0085 75.2018 9.96927 75.2018 9.84886C75.2018 9.72845 75.2421 9.68923 75.3822 9.67312C75.5326 9.6559 75.5661 9.61694 75.5832 9.43963L75.6039 9.22684H76.8793H78.1549V9.42326V9.61969H78.5759H78.9968L79.0416 9.14257C79.1076 8.44033 79.0832 8.34697 78.8275 8.32241C78.64 8.30434 78.6143 8.27867 78.6143 8.10961V7.91731H76.6825H74.7507L74.7301 8.13011ZM79.9145 8.13011C79.8964 8.31724 79.8682 8.34539 79.6807 8.3634C79.4931 8.38147 79.4674 8.40714 79.4674 8.5762C79.4674 8.74532 79.4906 8.7685 79.6601 8.7685C79.8296 8.7685 79.8553 8.79417 79.8734 8.9813L79.894 9.1941L80.7595 9.21237L81.625 9.23057L81.6454 9.44153C81.6623 9.61681 81.6963 9.6559 81.8463 9.67312C82.0205 9.69316 82.0268 9.70723 82.0268 10.0824C82.0268 10.4532 82.0193 10.4709 81.8627 10.4709H81.6986V13.0487V15.6264L81.9447 15.667C82.0801 15.6893 82.5526 15.7079 82.9947 15.7083L83.7986 15.709V12.4698V9.23063L84.6682 9.21237L85.5377 9.1941L85.5584 9.01404C85.5758 8.86325 85.6105 8.83398 85.7717 8.83398C85.9526 8.83398 85.9643 8.81813 85.9643 8.57207C85.9643 8.3247 85.9533 8.31017 85.7674 8.31017C85.5924 8.31017 85.5705 8.28836 85.5705 8.11374V7.91731H82.7528H79.9351L79.9145 8.13011ZM23.8667 9.2047C23.6358 9.23286 23.6206 9.2487 23.6206 9.45993C23.6206 9.66415 23.6031 9.68517 23.4326 9.68517C23.2588 9.68517 23.2415 9.70795 23.203 9.98898C23.18 10.156 23.1612 10.436 23.1612 10.611C23.1612 10.9209 23.1561 10.9293 22.9643 10.9293H22.7675V11.7804V12.6316H22.9643C23.1586 12.6316 23.1612 12.6363 23.1612 12.9826C23.1612 13.1757 23.18 13.4703 23.203 13.6374C23.2415 13.9184 23.2588 13.9412 23.4326 13.9412C23.6037 13.9412 23.6206 13.9618 23.6206 14.1703C23.6206 14.3886 23.6315 14.3995 23.8503 14.3995C24.0617 14.3995 24.08 14.4151 24.08 14.5959V14.7924H24.7034H25.3268V14.5959C25.3268 14.4151 25.3451 14.3995 25.5565 14.3995C25.7753 14.3995 25.7862 14.3886 25.7862 14.1703C25.7862 13.9519 25.797 13.9412 26.0169 13.9412H26.2476L26.2302 11.9932L26.2128 10.0453L26.0351 10.0249C25.8701 10.0059 25.8543 9.97667 25.8133 9.61563C25.77 9.23345 25.7658 9.22684 25.5645 9.22651C25.4518 9.22631 25.0791 9.21459 24.7362 9.20038C24.3933 9.18624 24.0021 9.18814 23.8667 9.2047ZM68.426 9.20903C68.2033 9.23227 68.1799 9.25303 68.1799 9.42719C68.1799 9.59743 68.1571 9.61969 67.983 9.61969H67.7862V10.0412V10.4626L67.5729 10.4832L67.3596 10.5037L67.3393 11.5513C67.328 12.1275 67.3379 12.8125 67.3612 13.0736C67.4033 13.5446 67.4051 13.5483 67.5949 13.5483H67.7862V13.9739V14.3995H68.2127H68.6393V14.5959V14.7924H69.0658H69.4924V14.5959V14.3995H69.9137H70.3351L70.3808 13.9739C70.4253 13.559 70.4312 13.5483 70.6156 13.5483H70.8049V11.8132V10.0781H70.608C70.4268 10.0781 70.4112 10.0599 70.4112 9.84886C70.4112 9.63063 70.4002 9.61969 70.1815 9.61969C69.9725 9.61969 69.9518 9.6028 69.9518 9.43237C69.9518 9.25532 69.9329 9.24281 69.6072 9.20379C69.2552 9.16162 68.864 9.16332 68.426 9.20903ZM52.6268 10.5364V11.8459H52.8565C53.0578 11.8459 53.0862 11.8662 53.0862 12.0096C53.0862 12.1478 53.1168 12.1733 53.2831 12.1733C53.4483 12.1733 53.4799 12.1475 53.4799 12.0126C53.4799 11.8598 53.5016 11.851 53.9229 11.8326L54.3659 11.8132L54.3864 11.6004C54.4045 11.4133 54.4302 11.3876 54.5997 11.3876H54.7924V10.7001V10.0126H54.602C54.4181 10.0126 54.41 9.99913 54.3659 9.61969L54.3202 9.22684H53.4735H52.6268V10.5364Z" fill="white"/>
</svg>
