<svg width="58" height="24" viewBox="0 0 58 24" fill="none" xmlns="http://www.w3.org/2000/svg">
<g clip-path="url(#clip0_16650_121501)">
<path d="M26.044 18.4357C27.0111 18.0022 27.6447 17.0018 27.6113 15.9346C27.6113 14.0005 26.044 12.9 24.1766 12.9H21.6088C20.8418 12.9 20.2416 13.5003 20.2416 14.2673V20.67C20.2416 21.437 20.8752 22.0706 21.6422 22.0706C22.4091 22.0706 23.0427 21.437 23.0427 20.67V18.9026L24.8435 21.4703C25.1103 21.8705 25.5438 22.0706 25.9773 22.0706C26.2774 22.0706 26.5776 21.9705 26.8443 21.8038C27.4446 21.3369 27.5446 20.5032 27.0778 19.903L26.044 18.4357ZM24.8435 16.1681C24.7768 16.5349 24.4433 16.8017 24.0765 16.735H23.0094V15.4011H24.2432C24.6101 15.4344 24.8768 15.7679 24.8435 16.1347V16.1681Z" fill="white"/>
<path d="M33.4477 14.0336C33.2143 13.3666 32.5807 12.8997 31.847 12.8997C31.1134 12.8664 30.4798 13.3333 30.2464 14.0336L27.6453 20.1028C27.5452 20.3029 27.5119 20.5029 27.5119 20.7364C27.5452 21.5034 28.1788 22.1036 28.9458 22.1036C29.5127 22.1036 30.0463 21.7368 30.213 21.2032L30.3797 20.703H33.3477L33.5477 21.2366C33.7478 21.7701 34.2814 22.137 34.8483 22.1036C35.0484 22.1036 35.2485 22.0703 35.4152 21.9702C36.1155 21.6368 36.3823 20.8364 36.0822 20.1361L33.4477 14.0336ZM31.1801 18.4354L31.847 16.5013L32.5807 18.4354H31.1801Z" fill="white"/>
<path d="M41.751 12.8665C41.1508 12.8331 40.6172 13.2 40.4171 13.7669L38.8832 17.8686L37.3158 13.8002C37.1158 13.2333 36.5822 12.8665 35.9819 12.8998C34.9815 12.8998 34.3479 13.9336 34.7481 14.934L37.1824 20.9365C37.3825 21.4034 37.7494 21.7702 38.2162 21.9703C39.1166 22.3038 40.1504 21.8703 40.4838 20.9699C40.4838 20.9699 40.4838 20.9699 40.4838 20.9365L42.9182 14.934L42.8848 14.9674C42.9849 14.7673 43.0516 14.5672 43.0516 14.3338C43.1183 13.5334 42.518 12.8998 41.751 12.8665C41.7844 12.8665 41.7844 12.8665 41.751 12.8665Z" fill="white"/>
<path d="M48.4874 19.4366H46.1531V18.5696H48.0539C48.6875 18.6029 49.221 18.1027 49.2544 17.4691C49.2877 16.8355 48.7875 16.302 48.1539 16.2686C48.1206 16.2686 48.0872 16.2686 48.0205 16.2686H46.1197V15.5016H48.454C49.121 15.4683 49.6545 14.9347 49.6879 14.2678C49.7212 13.5341 49.1543 12.9339 48.454 12.8672H44.7191C43.9521 12.8672 43.3519 13.4674 43.3519 14.2344V20.6705C43.3519 21.4375 43.9521 22.0377 44.7191 22.0377H48.454C49.1877 22.0377 49.7879 21.4708 49.7879 20.7372V20.7038C49.7546 20.0035 49.1877 19.4366 48.4874 19.4366Z" fill="white"/>
<path d="M21.6422 12.4336C22.4091 12.4336 23.0427 11.8 23.0427 11.033V9.13222H25.0102C25.6772 9.16557 26.2441 8.66536 26.2774 7.99841C26.3108 7.33146 25.8106 6.76456 25.1436 6.73121C25.1103 6.73121 25.0436 6.73121 25.0102 6.73121H23.0427V5.86418H25.5438C26.2774 5.73079 26.7443 5.03049 26.6109 4.29685C26.5109 3.6966 26.0107 3.26308 25.4104 3.22974H21.6088C20.8418 3.22974 20.2416 3.82999 20.2416 4.59698V10.9997C20.2416 11.7667 20.8752 12.4003 21.6422 12.4336Z" fill="white"/>
<path d="M25.9775 9.59908C25.7441 9.46569 25.4773 9.36565 25.2105 9.36565C24.4769 9.36565 23.91 9.9659 23.91 10.6995C23.91 11.0664 24.0767 11.3998 24.3102 11.6333C24.8104 12.1335 25.6441 12.5003 26.9113 12.5003C29.0455 12.5003 30.246 10.9997 30.246 9.26561V4.59698C30.246 3.82999 29.6457 3.22974 28.8788 3.22974C28.1118 3.22974 27.4782 3.82999 27.4782 4.59698V9.3323C27.4448 9.66578 27.178 9.89921 26.8779 9.89921C26.6111 9.89921 26.2777 9.79917 25.9775 9.59908Z" fill="white"/>
<path d="M31.7461 12.4333C32.313 12.4333 32.8466 12.0665 33.0133 11.533L33.1801 11.0327H36.1146L36.3147 11.5663C36.5148 12.0999 37.0484 12.4667 37.6153 12.4333C37.8153 12.4333 38.0154 12.4 38.1822 12.2999C38.8825 11.9665 39.1826 11.1661 38.8825 10.4658L36.2814 4.36327C36.0479 3.69632 35.4143 3.22946 34.6807 3.22946C33.947 3.19611 33.3134 3.66298 33.08 4.36327L30.4789 10.4325H30.4456C30.3455 10.6326 30.3122 10.866 30.3122 11.0994C30.3455 11.8664 30.9791 12.4333 31.7461 12.4333ZM34.6473 6.86432L35.3143 8.79847H33.9137L34.6473 6.86432Z" fill="white"/>
<path d="M40.5834 12.4336H44.285C45.0186 12.3002 45.4855 11.5999 45.3521 10.8663C45.252 10.266 44.7518 9.83252 44.1516 9.79917H41.984V4.63033C41.984 3.86334 41.3504 3.22974 40.5834 3.22974C39.8164 3.22974 39.1828 3.86334 39.1828 4.63033V11.0664C39.1828 11.8 39.8164 12.4336 40.5834 12.4336Z" fill="white"/>
<path d="M45.6521 11.033C45.6521 11.8 46.2523 12.4003 47.0193 12.4003H50.7209C51.4545 12.2669 51.9214 11.5666 51.788 10.8329C51.688 10.2327 51.1878 9.79917 50.5875 9.76582H48.4199V4.63033C48.4199 3.86334 47.7863 3.22974 47.0193 3.22974C46.2523 3.22974 45.6187 3.86334 45.6187 4.63033L45.6521 11.033Z" fill="white"/>
<path d="M56.2906 12.8335C55.5236 12.8668 54.9567 13.5338 54.99 14.2674V17.0686L52.6557 13.6005C52.4223 13.167 51.9554 12.9002 51.4218 12.9002H51.3885C50.6215 12.9002 50.0212 13.5004 50.0212 14.2674V20.6701C50.0546 21.3704 50.6215 21.9373 51.3218 21.9707C52.0554 22.0374 52.7224 21.4705 52.7557 20.7035V20.6701V17.8689L55.0901 21.4038C55.3568 21.8373 55.8237 22.0707 56.3239 22.1041H56.3572C57.0909 22.1041 57.6911 21.5038 57.6911 20.7702V20.7368V14.3008L57.7245 14.2674V14.134C57.6911 13.4004 57.0909 12.8335 56.3572 12.8335C56.3239 12.8335 56.3239 12.8335 56.2906 12.8335Z" fill="white"/>
<path d="M30.3791 13.0338C30.3791 13.3339 30.1457 13.6007 29.8122 13.6007C29.5121 13.6007 29.2453 13.3673 29.2453 13.0338C29.2453 12.7337 29.4787 12.4669 29.8122 12.4669H29.8456C30.1123 12.5003 30.3458 12.7337 30.3791 13.0338Z" fill="white"/>
<path d="M31.9796 3.36256C31.9796 3.06243 32.213 2.79565 32.5465 2.79565C32.8466 2.79565 33.1134 3.02908 33.1134 3.36256C33.1134 3.66268 32.88 3.92946 32.5465 3.92946C32.2464 3.96281 31.9462 3.72938 31.9462 3.39591C31.9462 3.39591 31.9463 3.36256 31.9796 3.36256Z" fill="white"/>
<path d="M33.9803 12.4331C34.2805 12.4331 34.5472 12.6999 34.5472 13C34.5472 13.3001 34.2805 13.5669 33.9803 13.5669C33.6802 13.5669 33.4134 13.3001 33.4134 13C33.4134 12.6999 33.6469 12.4665 33.9803 12.4331Z" fill="white"/>
<path d="M36.1481 3.36256C36.1481 3.06243 36.4149 2.79565 36.715 2.79565C37.0152 2.79565 37.2819 3.06243 37.2819 3.36256C37.2819 3.66268 37.0152 3.92946 36.715 3.92946C36.4149 3.92946 36.1481 3.69603 36.1481 3.36256Z" fill="white"/>
<path d="M9.93752 2.8293C9.90417 2.42913 9.87082 1.96227 9.83747 1.42871L8.83705 2.76261H8.53693C6.60278 2.72926 4.66863 3.19612 2.93457 4.0965L2.96792 4.1632C3.76825 3.86307 4.60194 3.72968 5.43562 3.72968C6.23596 3.72968 7.03629 3.86307 7.80328 4.1632L7.30307 4.7968C6.60278 4.53002 5.86914 4.39663 5.13549 4.39663C4.13507 4.36328 3.168 4.63006 2.33432 5.09692L0.366821 2.49583H0.333474C0.133389 4.7968 0 7.36454 0 8.66509C0 11.633 0.700295 12.2333 1.53398 12.9336C2.16758 13.4338 2.86787 14.0674 3.33474 16.0015C3.63486 17.1687 3.83495 17.4354 4.5019 17.4354C5.10215 17.4354 5.36893 17.202 5.6357 16.2016C6.13592 14.3008 7.20303 13.3337 8.17011 12.4667C9.27057 11.4996 10.271 10.6659 10.271 8.76513C10.271 7.66467 10.1043 6.59755 9.77078 5.53044C10.6378 6.49751 11.1047 7.73136 11.1047 9.03191C11.1047 10.5325 10.5711 11.5663 8.77036 13.1003C7.43646 14.3008 7.00295 14.801 6.43604 16.6351C6.03587 17.969 5.26888 19.3362 3.20135 19.3362C2.5344 19.3362 1.86745 19.2029 1.2672 18.9694L1.23385 19.0361C3.168 21.3037 6.00253 22.6043 8.97044 22.5709C14.6061 22.5709 18.8413 18.2358 18.8413 12.6334C18.8746 7.49793 15.3398 3.4629 9.93752 2.8293ZM3.70156 11.633C3.13465 11.4996 2.5344 11.3996 1.93415 11.3996V11.3662C2.00084 11.0661 2.13423 10.7993 2.33432 10.5659C2.90122 10.7326 3.36808 11.0994 3.70156 11.5663V11.633Z" fill="white"/>
</g>
<defs>
<clipPath id="clip0_16650_121501">
<rect width="57.6" height="24" fill="white"/>
</clipPath>
</defs>
</svg>
