<svg width="65" height="20" viewBox="0 0 65 20" fill="none" xmlns="http://www.w3.org/2000/svg">
<g clip-path="url(#clip0_16665_63944)">
<path d="M31.6271 19.9863C28.598 19.876 25.4863 19.1373 22.3051 17.7733C21.0104 17.2182 19.6412 16.5306 18.2479 15.7358C17.3289 15.2116 15.2254 13.9241 15.1082 13.8142C15.0346 13.745 15.0057 13.6801 15.0057 13.5836C15.0057 13.405 15.1341 13.2773 15.3135 13.2776C15.4066 13.2778 15.429 13.2876 15.6487 13.4237C16.5303 13.9701 17.7497 14.5891 18.9378 15.0932C24.4715 17.4412 31.0273 18.2657 37.3204 17.4051C41.6181 16.8174 45.7491 15.4422 48.9716 13.5265C49.4365 13.2502 49.4794 13.2356 49.6187 13.3074C49.8111 13.4065 49.8528 13.6493 49.703 13.7977C49.644 13.8561 49.5717 13.9024 48.5139 14.5592C45.6929 16.3106 43.4153 17.467 41.0439 18.3517C37.8542 19.5418 34.6578 20.0966 31.6271 19.9863Z" fill="white"/>
<path fill-rule="evenodd" clip-rule="evenodd" d="M0.568542 0.309115C0.568542 0.309115 0.628189 0.496839 0.685885 1.03034C0.755051 2.35937 0.758717 3.461 0.766712 4.68933C0.782637 5.63785 0.773321 6.56211 0.765123 7.45213C0.759594 8.05484 0.755426 8.38338 0.755426 8.93138C0.755426 10.5621 0.626079 11.705 0.626079 11.705C0.626079 11.705 1.8317 11.9644 3.65146 11.9644C5.47185 11.9644 7.40333 11.3345 8.51784 10.3894C9.63208 9.44432 10.6349 8.09149 10.6349 5.66428C10.6349 3.23698 9.5949 1.90273 8.22069 1.03198C6.84607 0.160832 4.74741 -0.00566597 3.13145 0.0683259C1.51589 0.142617 0.624446 0.309115 0.568542 0.309115ZM63.8626 9.44432L61.4315 8.87004C60.7936 9.49973 60.1043 9.81265 59.2193 9.79633C57.397 9.763 56.4914 8.69135 56.1547 6.92414H63.9919C64.1033 6.29418 64.1399 5.62709 64.103 4.99712C64.0286 3.72471 63.6369 2.55358 62.8401 1.55076C62.0515 0.55793 60.6947 0.0372571 59.0172 0.0497113C57.442 0.0616324 56.1545 0.600221 55.1353 1.68056C54.1774 2.69547 53.6041 4.24319 53.6308 6.25708C53.6564 8.17031 54.1443 9.5948 55.3395 10.76C56.1715 11.5712 57.2898 12.0045 58.7569 12.0013C61.5522 11.9172 62.7137 11.0184 63.8626 9.44432ZM61.8725 4.9603H56.2467C56.346 3.50853 57.6782 2.15642 59.0896 2.16311C60.5505 2.1698 61.8052 3.21233 61.8725 4.9603ZM37.2027 2.24642C39.0632 2.24642 40.572 3.92681 40.572 5.99891C40.572 8.07101 39.0632 9.75148 37.2027 9.75148C35.3428 9.75148 33.8338 8.07101 33.8338 5.99891C33.8338 3.92681 35.3428 2.24642 37.2027 2.24642ZM37.2752 0C40.3972 0 42.9287 2.70632 42.9287 5.99891C42.9287 9.29151 40.3248 11.9616 37.2027 11.9616C34.0813 11.9616 31.5495 9.29151 31.5495 5.99891C31.5495 2.70632 34.1538 0 37.2752 0ZM43.4187 11.5567H45.9426V3.94086C48.2519 5.96078 49.9535 8.49954 50.9749 11.5567L53.1431 11.5697V0.383108L50.7263 0.383111L50.7237 5.86372C49.9671 4.6013 49.0406 3.56302 48.1296 2.66796C47.2173 1.7715 46.4762 1.01242 45.5526 0.383111H43.4186L43.4187 11.5567ZM21.3699 11.5567H23.8214V3.94086C26.1307 5.96078 27.7964 8.49954 28.8178 11.5567H31.0093V0.383107H28.5574V5.77444C27.1329 3.72668 25.4071 1.88735 23.4317 0.383107H21.3699V11.5567ZM14.3682 0.383107H16.7455C19.0539 2.93116 20.4669 6.6372 20.943 11.5567H18.3612C18.2941 10.7023 18.1894 9.91704 18.0475 9.12857H12.9509C12.8094 9.9158 12.7057 10.701 12.6409 11.5567H10.1335C10.5858 6.60756 12.101 2.77818 14.3682 0.383107ZM17.5718 7.03563C17.0176 5.26969 16.3578 3.81692 15.4647 2.47702C14.5775 3.82211 13.8835 5.33855 13.393 7.03563H17.5718ZM3.15306 2.25475C3.15306 2.25475 3.65145 2.23613 4.2646 2.23613C4.87767 2.23613 6.21671 2.34735 7.20086 3.31097C8.1851 4.27462 8.20376 5.36771 8.20376 6.12765C8.20376 6.88734 7.94204 8.53637 6.32608 9.27746C4.71041 10.0189 3.1345 9.74092 3.1345 9.74092L3.15306 2.25475Z" fill="white"/>
</g>
<defs>
<clipPath id="clip0_16665_63944">
<rect width="63.5484" height="20" fill="white" transform="translate(0.568542)"/>
</clipPath>
</defs>
</svg>
